<svg width="110" height="28" viewBox="0 0 110 28" fill="none" xmlns="http://www.w3.org/2000/svg">
<g opacity="0.5">
<path d="M35.9842 17.3126V8.21541C35.9842 7.68279 35.9414 6.59269 35.8556 4.94512L37.0026 8.93977L39.7253 17.3126H41.9763L44.699 8.93977C44.7395 8.81431 44.7837 8.67277 44.8315 8.51516L44.8907 8.3183C45.1242 7.5341 45.4355 6.40971 45.8245 4.94512C45.7602 6.50747 45.7263 7.39162 45.7227 7.59757C45.7191 7.80352 45.7173 8.00946 45.7173 8.21541V17.3126H48.5258V2.30332H44.3131L41.5368 11.1129L40.8615 13.5203L40.347 11.507L40.1111 10.6974L37.4099 2.30332H33.1758V17.3126H35.9842ZM54.188 17.5256C55.8888 17.5256 57.1608 16.7693 58.004 15.2566H58.0684C58.1398 15.9739 58.356 16.5172 58.7169 16.8865C59.0778 17.2557 59.637 17.4404 60.3944 17.4404C60.6088 17.4404 60.7964 17.4333 60.9572 17.4191C61.118 17.4049 61.2699 17.3871 61.4128 17.3658C61.5557 17.3445 61.6986 17.3161 61.8415 17.2806C61.9845 17.2451 62.1453 17.206 62.3239 17.1634V15.5443C62.1095 15.5869 61.888 15.6082 61.6593 15.6082C61.3163 15.6082 61.0715 15.4857 60.925 15.2407C60.7786 14.9957 60.7053 14.55 60.7053 13.9038V9.70675C60.7053 8.38585 60.3087 7.36677 59.5155 6.64951C58.7222 5.93224 57.5931 5.57361 56.1282 5.57361C54.6775 5.57361 53.5323 5.863 52.6927 6.44178C51.853 7.02056 51.3367 7.87098 51.1437 8.99303L54.2845 9.14217C54.3488 8.55984 54.5114 8.14262 54.7722 7.89051C55.033 7.6384 55.4421 7.51235 55.9995 7.51235C56.5998 7.51235 57.0322 7.69522 57.2966 8.06095C57.561 8.42668 57.6932 8.98593 57.6932 9.7387V10.3246L55.1956 10.3672C53.7092 10.3814 52.5747 10.701 51.7922 11.3259C51.0097 11.9509 50.6185 12.8599 50.6185 14.0529C50.6185 15.1537 50.9329 16.0076 51.5618 16.6148C52.1906 17.222 53.066 17.5256 54.188 17.5256ZM55.1527 15.4377C54.7311 15.4377 54.3934 15.3046 54.1398 15.0383C53.8861 14.772 53.7592 14.3654 53.7592 13.8186C53.7592 13.3925 53.836 13.0516 53.9897 12.7959C54.1433 12.5403 54.3666 12.3503 54.6596 12.226C54.9526 12.1018 55.4493 12.0254 56.1496 11.997L57.6932 11.9757V12.5616C57.6932 13.0658 57.5824 13.5434 57.3609 13.9943C57.1394 14.4453 56.8339 14.7986 56.4444 15.0543C56.0549 15.3099 55.6244 15.4377 55.1527 15.4377ZM66.7105 17.3126V11.6561C66.7105 10.4702 66.9196 9.57537 67.3376 8.97173C67.7557 8.36809 68.3399 8.06628 69.0902 8.06628C69.4618 8.06628 69.8906 8.11954 70.3765 8.22606V5.72275C70.1407 5.61622 69.8298 5.56296 69.444 5.56296C68.9723 5.56296 68.5793 5.64285 68.2648 5.80264C67.9504 5.96243 67.6788 6.20743 67.4502 6.53766C67.2215 6.86788 66.9607 7.43778 66.6677 8.24737H66.6248C66.6248 8.03432 66.6069 7.6029 66.5712 6.9531C66.5355 6.3033 66.5069 5.91449 66.4854 5.78666H63.6127C63.6341 6.11333 63.6538 6.48794 63.6716 6.91049C63.6895 7.33303 63.6984 7.86033 63.6984 8.49237V17.3126H66.7105ZM75.1919 17.5043C76.1424 17.5043 76.9892 17.3836 77.7324 17.1421V15.2886C77.2965 15.388 76.9606 15.4377 76.7248 15.4377C76.2746 15.4377 75.9423 15.3046 75.7279 15.0383C75.5135 14.772 75.4063 14.3583 75.4063 13.7973V7.81062H77.6038V5.78666H75.4063V3.08095H73.5197L72.5764 5.78666H70.9578V7.81062H72.4263V14.6069C72.4263 15.5798 72.6657 16.3059 73.1445 16.7853C73.6233 17.2646 74.3058 17.5043 75.1919 17.5043ZM82.5264 3.70944V1.50439H79.5142V3.70944H82.5264ZM82.5264 17.3126V5.78666H79.5142V17.3126H82.5264ZM88.6066 17.3126V11.1342C88.6066 10.1612 88.8299 9.36409 89.2766 8.7427C89.7232 8.12131 90.311 7.81062 91.0399 7.81062C92.4191 7.81062 93.1087 8.8226 93.1087 10.8466V17.3126H96.1101V9.99436C96.1101 8.54563 95.7814 7.44489 95.1239 6.69212C94.4665 5.93935 93.5232 5.56296 92.294 5.56296C91.4436 5.56296 90.7112 5.76181 90.0966 6.15949C89.482 6.55718 88.9711 7.19633 88.5637 8.07693H88.5209C88.5209 7.85678 88.503 7.45376 88.4673 6.86788C88.4315 6.282 88.403 5.92159 88.3815 5.78666H85.5088C85.5302 6.09913 85.5498 6.45244 85.5677 6.84658C85.5856 7.24071 85.5945 7.7467 85.5945 8.36454V17.3126H88.6066ZM104.109 17.5256C105.953 17.5256 107.396 16.9948 108.44 15.9331C109.483 14.8714 110.005 13.4067 110.005 11.539C110.005 9.61442 109.506 8.13907 108.509 7.11289C107.512 6.0867 106.067 5.57361 104.173 5.57361C102.323 5.57361 100.883 6.10446 99.8536 7.16615C98.8245 8.22784 98.31 9.68544 98.31 11.539C98.31 13.3996 98.8245 14.8625 99.8536 15.9277C100.883 16.993 102.301 17.5256 104.109 17.5256ZM104.077 15.4803C103.234 15.4803 102.589 15.1448 102.142 14.4737C101.695 13.8026 101.472 12.8243 101.472 11.539C101.472 8.93267 102.387 7.62953 104.216 7.62953C105.074 7.62953 105.728 7.93845 106.178 8.55629C106.628 9.17413 106.853 10.1684 106.853 11.539C106.853 14.1666 105.928 15.4803 104.077 15.4803Z" fill="#2D313C"/>
<path opacity="0.595853" d="M63.0343 26.7125C63.263 26.7125 63.4748 26.6762 63.6697 26.6035C63.8647 26.5309 64.0287 26.434 64.1618 26.3129C64.2948 26.1919 64.4054 26.0689 64.4935 25.9441C64.5816 25.8193 64.6538 25.6899 64.71 25.5557L64.0465 25.349C63.964 25.5539 63.8319 25.7271 63.65 25.8687C63.4682 26.0102 63.2592 26.081 63.0231 26.081C62.6594 26.081 62.3689 25.9301 62.1515 25.6284C61.934 25.3266 61.8253 24.9168 61.8253 24.399C61.8253 23.8886 61.9331 23.4816 62.1486 23.178C62.3642 22.8744 62.6557 22.7226 63.0231 22.7226C63.4092 22.7226 63.7222 22.9368 63.9621 23.3652L64.5976 23.1584C64.4663 22.8567 64.2667 22.6033 63.9987 22.3984C63.7306 22.1935 63.4092 22.0911 63.0343 22.0911C62.4532 22.0911 61.979 22.2988 61.6116 22.7142C61.2442 23.1296 61.0605 23.6912 61.0605 24.399C61.0605 25.118 61.2471 25.6833 61.6201 26.095C61.9931 26.5067 62.4645 26.7125 63.0343 26.7125ZM66.5376 26.7125C66.7625 26.7125 66.964 26.6752 67.1421 26.6007C67.3201 26.5262 67.4635 26.4303 67.5722 26.3129C67.681 26.1956 67.7709 26.0596 67.8422 25.905C67.9134 25.7504 67.9631 25.5986 67.9912 25.4496C68.0193 25.3006 68.0333 25.1515 68.0333 25.0025C68.0333 24.5219 67.9059 24.1159 67.651 23.7843C67.396 23.4527 67.0249 23.287 66.5376 23.287C66.0465 23.287 65.6735 23.4527 65.4185 23.7843C65.1636 24.1159 65.0362 24.5219 65.0362 25.0025C65.0362 25.159 65.0502 25.3127 65.0783 25.4635C65.1065 25.6144 65.1571 25.7672 65.2302 25.9218C65.3033 26.0764 65.3951 26.2105 65.5057 26.3241C65.6163 26.4377 65.7606 26.5309 65.9387 26.6035C66.1168 26.6762 66.3164 26.7125 66.5376 26.7125ZM66.5376 26.109C66.3314 26.109 66.1514 26.0177 65.9977 25.8351C65.844 25.6526 65.7672 25.3751 65.7672 25.0025C65.7672 24.6225 65.845 24.3422 66.0005 24.1615C66.1561 23.9808 66.3351 23.8905 66.5376 23.8905C66.74 23.8905 66.9181 23.9808 67.0718 24.1615C67.2255 24.3422 67.3023 24.6225 67.3023 25.0025C67.3023 25.3751 67.2255 25.6526 67.0718 25.8351C66.9181 26.0177 66.74 26.109 66.5376 26.109ZM69.3885 26.6119V22.0464H68.68V26.6119H69.3885ZM71.5366 26.7125C71.7615 26.7125 71.963 26.6752 72.1411 26.6007C72.3192 26.5262 72.4626 26.4303 72.5713 26.3129C72.68 26.1956 72.77 26.0596 72.8412 25.905C72.9124 25.7504 72.9621 25.5986 72.9902 25.4496C73.0183 25.3006 73.0324 25.1515 73.0324 25.0025C73.0324 24.5219 72.9049 24.1159 72.65 23.7843C72.3951 23.4527 72.024 23.287 71.5366 23.287C71.0455 23.287 70.6725 23.4527 70.4176 23.7843C70.1627 24.1159 70.0352 24.5219 70.0352 25.0025C70.0352 25.159 70.0493 25.3127 70.0774 25.4635C70.1055 25.6144 70.1561 25.7672 70.2292 25.9218C70.3023 26.0764 70.3942 26.2105 70.5047 26.3241C70.6153 26.4377 70.7597 26.5309 70.9377 26.6035C71.1158 26.6762 71.3154 26.7125 71.5366 26.7125ZM71.5366 26.109C71.3304 26.109 71.1505 26.0177 70.9968 25.8351C70.8431 25.6526 70.7662 25.3751 70.7662 25.0025C70.7662 24.6225 70.844 24.3422 70.9996 24.1615C71.1552 23.9808 71.3342 23.8905 71.5366 23.8905C71.739 23.8905 71.9171 23.9808 72.0708 24.1615C72.2245 24.3422 72.3014 24.6225 72.3014 25.0025C72.3014 25.3751 72.2245 25.6526 72.0708 25.8351C71.9171 26.0177 71.739 26.109 71.5366 26.109ZM74.3314 26.6119V24.969C74.3314 24.6561 74.396 24.4055 74.5254 24.2174C74.6547 24.0292 74.8412 23.9352 75.0849 23.9352C75.2236 23.9352 75.3642 23.9575 75.5066 24.0022V23.3596C75.3979 23.3112 75.2573 23.287 75.0849 23.287C74.9012 23.287 74.7428 23.3317 74.6097 23.4211C74.4766 23.5105 74.3745 23.6148 74.3032 23.734V23.3875H73.6172V26.6119H74.3314ZM77.0417 26.7125C77.4504 26.7125 77.7662 26.6203 77.9893 26.4359C78.2123 26.2515 78.3238 26.027 78.3238 25.7625C78.3238 25.3341 77.9902 25.0137 77.3229 24.8013C77.3042 24.7939 77.2742 24.7846 77.2329 24.7734C77.0755 24.7212 76.9536 24.6784 76.8674 24.6449C76.7812 24.6113 76.6978 24.5583 76.6172 24.4856C76.5366 24.413 76.4963 24.3301 76.4963 24.2369C76.4963 24.1252 76.5422 24.0348 76.6341 23.9659C76.7259 23.897 76.8581 23.8625 77.0305 23.8625C77.3454 23.8625 77.6134 24.0134 77.8346 24.3152L78.307 24.0302C78.1908 23.8141 78.0146 23.6362 77.7784 23.4965C77.5422 23.3568 77.291 23.287 77.0249 23.287C76.6687 23.287 76.3707 23.3726 76.1308 23.544C75.8909 23.7154 75.7709 23.9426 75.7709 24.2258C75.7709 24.3711 75.7971 24.4987 75.8496 24.6086C75.9021 24.7185 75.979 24.8097 76.0802 24.8824C76.1814 24.955 76.2779 25.0128 76.3698 25.0556C76.4616 25.0984 76.575 25.1422 76.71 25.1869C76.725 25.1907 76.7493 25.1981 76.7831 25.2093C76.9705 25.2689 77.1111 25.3164 77.2048 25.3518C77.2985 25.3872 77.3876 25.4403 77.4719 25.511C77.5563 25.5818 77.5984 25.6638 77.5984 25.7569C77.5984 25.8724 77.5469 25.9646 77.4438 26.0335C77.3407 26.1024 77.2011 26.1369 77.0249 26.1369C76.665 26.1369 76.3726 25.973 76.1477 25.6452L75.6359 25.9413C75.7671 26.1798 75.9555 26.3679 76.2011 26.5057C76.4466 26.6436 76.7268 26.7125 77.0417 26.7125ZM81.6022 26.7125C81.8271 26.7125 82.0286 26.6752 82.2067 26.6007C82.3847 26.5262 82.5281 26.4303 82.6369 26.3129C82.7456 26.1956 82.8355 26.0596 82.9068 25.905C82.978 25.7504 83.0277 25.5986 83.0558 25.4496C83.0839 25.3006 83.098 25.1515 83.098 25.0025C83.098 24.5219 82.9705 24.1159 82.7156 23.7843C82.4607 23.4527 82.0895 23.287 81.6022 23.287C81.1111 23.287 80.7381 23.4527 80.4832 23.7843C80.2282 24.1159 80.1008 24.5219 80.1008 25.0025C80.1008 25.159 80.1148 25.3127 80.143 25.4635C80.1711 25.6144 80.2217 25.7672 80.2948 25.9218C80.3679 26.0764 80.4597 26.2105 80.5703 26.3241C80.6809 26.4377 80.8252 26.5309 81.0033 26.6035C81.1814 26.6762 81.381 26.7125 81.6022 26.7125ZM81.6022 26.109C81.396 26.109 81.216 26.0177 81.0623 25.8351C80.9086 25.6526 80.8318 25.3751 80.8318 25.0025C80.8318 24.6225 80.9096 24.3422 81.0652 24.1615C81.2207 23.9808 81.3997 23.8905 81.6022 23.8905C81.8046 23.8905 81.9827 23.9808 82.1364 24.1615C82.2901 24.3422 82.3669 24.6225 82.3669 25.0025C82.3669 25.3751 82.2901 25.6526 82.1364 25.8351C81.9827 26.0177 81.8046 26.109 81.6022 26.109ZM84.6443 26.6119V23.9911H85.3191V23.3875H84.6443V23.0914C84.6443 22.9349 84.6715 22.8213 84.7259 22.7505C84.7802 22.6797 84.8655 22.6443 84.9817 22.6443H85.3922V22.0464H84.8805C84.5769 22.0464 84.3416 22.1293 84.1748 22.2951C84.008 22.4608 83.9246 22.7095 83.9246 23.0411V23.3875H83.4297V23.9911H83.9246V26.6119H84.6443ZM87.3941 27.9307C87.6753 27.9307 87.9105 27.8636 88.0998 27.7295C88.2891 27.5954 88.4438 27.3644 88.5637 27.0366L89.9077 23.3875H89.1317L88.62 25.0472C88.5 25.4756 88.4306 25.7234 88.4119 25.7904H88.3894C88.3407 25.6004 88.2694 25.3527 88.1757 25.0472L87.619 23.3875H86.8374L88.052 26.5337L87.9452 26.8522C87.8814 27.031 87.7962 27.1567 87.6893 27.2294C87.5825 27.302 87.4447 27.3384 87.276 27.3384H87.1748V27.9307H87.3941ZM91.6509 26.7125C91.8758 26.7125 92.0773 26.6752 92.2554 26.6007C92.4334 26.5262 92.5768 26.4303 92.6855 26.3129C92.7943 26.1956 92.8842 26.0596 92.9555 25.905C93.0267 25.7504 93.0764 25.5986 93.1045 25.4496C93.1326 25.3006 93.1467 25.1515 93.1467 25.0025C93.1467 24.5219 93.0192 24.1159 92.7643 23.7843C92.5094 23.4527 92.1382 23.287 91.6509 23.287C91.1598 23.287 90.7868 23.4527 90.5319 23.7843C90.2769 24.1159 90.1495 24.5219 90.1495 25.0025C90.1495 25.159 90.1635 25.3127 90.1917 25.4635C90.2198 25.6144 90.2704 25.7672 90.3435 25.9218C90.4166 26.0764 90.5084 26.2105 90.619 26.3241C90.7296 26.4377 90.8739 26.5309 91.052 26.6035C91.2301 26.6762 91.4297 26.7125 91.6509 26.7125ZM91.6509 26.109C91.4447 26.109 91.2647 26.0177 91.111 25.8351C90.9573 25.6526 90.8805 25.3751 90.8805 25.0025C90.8805 24.6225 90.9583 24.3422 91.1139 24.1615C91.2694 23.9808 91.4484 23.8905 91.6509 23.8905C91.8533 23.8905 92.0314 23.9808 92.1851 24.1615C92.3388 24.3422 92.4156 24.6225 92.4156 25.0025C92.4156 25.3751 92.3388 25.6526 92.1851 25.8351C92.0314 26.0177 91.8533 26.109 91.6509 26.109ZM94.783 26.7125C95.0042 26.7125 95.1888 26.6622 95.3369 26.5616C95.485 26.461 95.5853 26.353 95.6377 26.2375H95.6434V26.6119H96.3294V23.3875H95.6209V25.1925C95.6209 25.4421 95.5609 25.6573 95.4409 25.8379C95.321 26.0186 95.1541 26.109 94.9405 26.109C94.5843 26.109 94.4063 25.8575 94.4063 25.3546V23.3875H93.6921V25.444C93.6921 25.6861 93.7258 25.8948 93.7933 26.0699C93.8608 26.2449 93.9508 26.3763 94.0632 26.4638C94.1757 26.5514 94.291 26.6147 94.4091 26.6538C94.5272 26.6929 94.6518 26.7125 94.783 26.7125ZM97.8195 26.6119V24.969C97.8195 24.6561 97.8842 24.4055 98.0136 24.2174C98.1429 24.0292 98.3294 23.9352 98.5731 23.9352C98.7118 23.9352 98.8523 23.9575 98.9948 24.0022V23.3596C98.8861 23.3112 98.7455 23.287 98.5731 23.287C98.3894 23.287 98.231 23.3317 98.0979 23.4211C97.9648 23.5105 97.8627 23.6148 97.7914 23.734V23.3875H97.1054V26.6119H97.8195ZM101.542 26.6119V22.0464H100.834V26.6119H101.542ZM103.178 22.907V22.1302H102.414V22.907H103.178ZM103.15 26.6119V23.3875H102.447V26.6119H103.15ZM104.955 26.6119V23.9911H105.63V23.3875H104.955V23.0914C104.955 22.9349 104.983 22.8213 105.037 22.7505C105.091 22.6797 105.177 22.6443 105.293 22.6443H105.703V22.0464H105.192C104.888 22.0464 104.653 22.1293 104.486 22.2951C104.319 22.4608 104.236 22.7095 104.236 23.0411V23.3875H103.741V23.9911H104.236V26.6119H104.955ZM107.447 26.7125C107.799 26.7125 108.093 26.6324 108.329 26.4722C108.566 26.312 108.736 26.1127 108.841 25.8743L108.245 25.6731C108.174 25.8109 108.07 25.9236 107.933 26.0112C107.796 26.0987 107.638 26.1425 107.458 26.1425C107.199 26.1425 106.996 26.054 106.848 25.8771C106.7 25.7001 106.626 25.4887 106.626 25.2428H108.875C108.886 25.1497 108.892 25.0547 108.892 24.9578C108.892 24.4623 108.753 24.06 108.476 23.7508C108.198 23.4416 107.846 23.287 107.418 23.287C106.984 23.287 106.623 23.4406 106.336 23.748C106.049 24.0553 105.906 24.4679 105.906 24.9858C105.906 25.511 106.049 25.9301 106.336 26.2431C106.623 26.556 106.993 26.7125 107.447 26.7125ZM108.166 24.7455H106.637C106.641 24.507 106.713 24.2993 106.853 24.1224C106.994 23.9454 107.182 23.8569 107.418 23.8569C107.655 23.8569 107.838 23.9436 107.969 24.1168C108.101 24.29 108.166 24.4996 108.166 24.7455Z" fill="#25272B"/>
<path d="M6.51506 4.11284L6.51506 26.3684C6.51496 26.5814 6.40458 26.7785 6.22486 26.8865C6.04515 26.9945 5.8229 26.9974 5.64054 26.8941L0.340395 23.8866C0.153321 23.7806 0.0372194 23.5794 0.0371094 23.3609L0.0371094 1.10534C0.0372166 0.892345 0.147594 0.695295 0.327308 0.587261C0.507022 0.479229 0.729271 0.476324 0.911633 0.579624L6.21178 3.58713C6.39885 3.6931 6.51495 3.89435 6.51506 4.11284Z" fill="#6B6B6B"/>
<path d="M15.1518 4.11284L15.1518 26.3684C15.1517 26.5814 15.0413 26.7785 14.8616 26.8865C14.6819 26.9945 14.4596 26.9974 14.2773 26.8941L8.97711 23.8866C8.79004 23.7806 8.67394 23.5794 8.67383 23.3609L8.67383 1.10534C8.67394 0.892345 8.78431 0.695295 8.96403 0.587261C9.14374 0.479229 9.36599 0.476324 9.54835 0.579624L14.8485 3.58713C15.0356 3.6931 15.1517 3.89435 15.1518 4.11284Z" fill="#6B6B6B"/>
<path d="M23.7895 4.11284L23.7895 26.3684C23.7894 26.5814 23.679 26.7785 23.4993 26.8865C23.3196 26.9945 23.0973 26.9974 22.915 26.8941L17.6148 23.8866C17.4277 23.7806 17.3116 23.5794 17.3115 23.3609L17.3115 1.10534C17.3116 0.892345 17.422 0.695295 17.6017 0.587261C17.7814 0.479229 18.0037 0.476324 18.186 0.579624L23.4862 3.58713C23.6733 3.6931 23.7894 3.89435 23.7895 4.11284Z" fill="#6B6B6B"/>
</g>
</svg>
