<svg width="104" height="142" viewBox="0 0 104 142" fill="none" xmlns="http://www.w3.org/2000/svg">
<g clip-path="url(#clip0_106_641)">
<path d="M12.1335 119.186C13.9129 114.066 16.7 109.7 19.8154 105.473C24.8886 98.5927 31.8621 94.7905 39.9297 92.7542C41.4442 92.3745 43.1487 92.5299 44.7323 92.7082C45.6133 92.8117 46.4311 93.4732 47.721 94.106C45.6076 95.3888 44.0413 96.5162 42.331 97.3445C35.9737 100.428 30.9638 104.954 26.6967 110.575C23.138 115.257 19.5102 119.807 17.7481 125.536C17.3104 126.963 16.199 127.325 14.6903 127.394C10.1238 127.596 7.4922 124.927 5.18305 121.55C0.13286 114.153 -1.08218 106.105 0.910255 97.4595C2.88541 88.8887 7.2561 81.5949 12.957 75.0431C18.6694 68.4741 25.1247 62.6644 31.8794 57.2112C42.2101 48.8706 52.6675 40.6909 63.0328 32.3904C71.6935 25.459 79.4041 17.6303 85.4217 8.24264C86.5216 6.52849 87.5466 4.82582 87.3393 2.58821C87.2817 1.94396 88.0879 0.845291 88.7329 0.615202C89.4642 0.356353 90.8865 0.54044 91.2608 1.06389C92.1246 2.27761 93.0172 3.81344 93.0287 5.22273C93.046 7.41432 92.6717 9.73249 91.8885 11.7803C89.1532 18.9245 85.1568 25.2462 79.6345 30.6935C71.348 38.8617 62.1229 45.9081 53.2146 53.3343C45.5097 59.7652 37.6666 66.0294 30.0597 72.5754C24.0363 77.7582 19.0725 83.8958 15.1337 90.8214C10.8955 98.2763 9.50191 106.255 10.8148 114.71C10.9646 115.688 11.2525 116.644 11.5174 117.598C11.6844 118.138 11.932 118.656 12.1335 119.186Z" fill="#F7EA78"/>
<path d="M78.4314 122.43C79.1225 122.43 79.9459 122.194 80.4757 122.482C81.4374 123.006 81.9844 123.828 81.708 125.157C80.0784 133.1 71.6018 140.624 63.465 140.981C56.837 141.275 52.092 137.955 48.8442 132.428C46.2068 127.941 45.2912 122.937 45.4524 117.806C45.7173 109.419 48.5563 101.866 53.5028 95.1302C55.8638 91.9147 58.9792 89.6886 63.0504 89.0846C65.8779 88.6704 67.1678 89.6426 68.976 91.8342C70.715 93.9395 70.8187 96.2634 71.1181 98.6794C72.0337 106.054 73.2315 113.365 76.5542 120.129C77.0091 121.055 77.5907 121.919 78.1147 122.81C78.2299 122.683 78.3335 122.557 78.4314 122.43ZM74.6078 127.573C74.6078 127.429 74.6078 127.291 74.6078 127.147C69.2927 125.364 66.9777 121.107 65.7742 116.177C64.9507 112.801 64.467 109.304 64.1791 105.835C63.9142 102.654 64.1215 99.4329 64.1215 96.2289C63.8797 96.1254 63.6378 96.0218 63.3959 95.9183C62.1003 97.3563 60.6491 98.6851 59.5493 100.261C57.7181 102.878 57.004 105.951 56.5088 109.068C55.5759 114.969 56.4109 120.636 58.9331 126.025C60.8219 130.069 63.9891 131.444 68.2273 130.098C70.4041 129.407 72.4886 128.424 74.6078 127.573Z" fill="#F7EA78"/>
<path d="M89.1883 67.571C89.2286 74.9914 88.0711 82.1586 84.6102 88.8081C83.971 90.0391 83.1361 91.2242 82.1859 92.2307C81.2645 93.2029 79.9977 93.7148 78.6099 93.1281C77.2221 92.5414 76.7441 91.2759 76.7383 89.9356C76.7383 88.5953 76.9629 87.2378 77.2105 85.9091C78.4198 79.2883 79.8364 72.6962 80.8442 66.0466C81.541 61.4276 81.0284 56.7683 80.0898 52.178C79.8998 51.2577 79.7097 50.3258 79.6579 49.3939C79.5888 48.1112 80.0207 46.9953 81.2991 46.4545C82.6408 45.8908 83.8444 46.3222 84.6563 47.4037C85.3992 48.393 86.0153 49.5147 86.4818 50.6652C88.7103 56.078 89.1595 61.7957 89.1883 67.571Z" fill="#F7EA78"/>
<path d="M51.2168 84.2004C48.8615 83.8726 46.7136 83.7172 44.6406 83.2398C41.9686 82.6243 39.6998 81.2496 38.2947 78.7704C37.12 76.6996 37.3503 74.4964 38.813 73.1562C40.1892 71.8965 42.1759 71.7987 44.1453 73.2195C48.0841 76.0668 52.6103 77.4704 57.1941 78.7358C58.0694 78.9774 59.0425 78.8681 59.9697 78.9487C60.3555 78.9832 60.7355 79.0809 61.1214 79.1443C61.0177 79.5642 61.0119 80.0474 60.7931 80.3983C59.6875 82.2045 57.9542 83.1651 55.9675 83.5964C54.3494 83.9474 52.6737 84.0221 51.2168 84.2004Z" fill="#F7EA78"/>
<path d="M97.9925 92.714C95.027 92.7543 92.5854 90.4764 92.3896 87.7441C92.1938 85.0866 96.288 81.1578 98.4071 81.1808C101.258 81.2152 103.947 83.637 103.999 86.4556C104.068 89.9357 101.442 92.668 97.9925 92.714Z" fill="#F7EA78"/>
<path d="M64.2535 74.157C59.8827 74.0189 54.8958 69.1294 54.7173 64.9073C54.6367 63.0839 55.4717 61.6975 56.9574 61.1856C58.4892 60.6564 60.2398 61.2086 61.0805 62.8653C62.7448 66.1556 64.2996 69.5034 65.7219 72.9029C66.3439 74.4043 64.9445 74.0707 64.2535 74.157Z" fill="#F7EA78"/>
<path d="M82.9915 117.196C81.074 117.196 79.7265 115.866 79.7207 113.978C79.715 112.112 81.1258 110.65 82.934 110.662C84.8055 110.673 86.4754 112.325 86.4582 114.144C86.4409 115.912 84.984 117.196 82.9915 117.196Z" fill="#F7EA78"/>
<path d="M71.1811 65.0972C72.4883 65.1375 73.4097 66.1277 73.2887 67.2791C73.162 68.4938 72.4307 69.1501 71.2099 69.1559C70.0466 69.1616 69.131 68.1541 69.252 66.997C69.3844 65.7765 70.1388 65.1835 71.1811 65.0972Z" fill="#F7EA78"/>
</g>
<defs>
<clipPath id="clip0_106_641">
<rect width="104" height="140.884" fill="white" transform="translate(0 0.499023)"/>
</clipPath>
</defs>
</svg>
