<svg width="111" height="29" viewBox="0 0 111 29" fill="none" xmlns="http://www.w3.org/2000/svg">
<g opacity="0.5">
<path d="M35.2063 18.0284V10.0569L40.9504 18.0284H44.1135L39.2676 11.6286C40.2461 11.4945 41.0305 11.2808 41.621 10.9874C42.2114 10.694 42.7217 10.2707 43.1519 9.71747C43.8688 8.80381 44.2273 7.68059 44.2273 6.34782C44.2273 4.64623 43.7002 3.29669 42.6458 2.2992C41.6252 1.34363 40.09 0.865845 38.0404 0.865845H32.6885V18.0284H35.2063ZM36.9396 9.71747H35.2063V3.16676H37.8759C39.0315 3.16676 39.9593 3.45805 40.6594 4.04061C41.3595 4.62317 41.7095 5.39643 41.7095 6.36039C41.7095 7.56743 41.1992 8.46433 40.1786 9.05108C39.411 9.49534 38.3314 9.71747 36.9396 9.71747ZM53.0136 18.3679C54.8608 18.3679 56.4382 17.7644 57.7456 16.5574C58.4372 15.9203 58.9855 15.1575 59.3904 14.269C59.7952 13.3805 59.9977 12.4962 59.9977 11.616C59.9977 9.54563 59.2132 7.83985 57.6443 6.4987C56.3285 5.37548 54.7807 4.81387 53.001 4.81387C51.8285 4.83063 50.7425 5.09258 49.743 5.5997C48.7435 6.10683 47.9232 6.80884 47.2821 7.70574C46.4555 8.86248 46.0422 10.1324 46.0422 11.5155C46.0422 12.5381 46.2826 13.5314 46.7634 14.4953C47.1514 15.2833 47.6617 15.9706 48.2943 16.5574C49.6017 17.7644 51.1748 18.3679 53.0136 18.3679ZM53.0136 16.1676C51.799 16.1676 50.7573 15.7527 49.8885 14.9228C48.9354 14.0008 48.4588 12.8859 48.4588 11.5783C48.4588 10.2707 48.9354 9.16424 49.8885 8.25896C50.7573 7.42912 51.799 7.0142 53.0136 7.0142C54.2282 7.03097 55.2784 7.44589 56.164 8.25896C57.1087 9.1391 57.5811 10.2623 57.5811 11.6286C57.5811 12.2238 57.4524 12.8147 57.1952 13.4015C56.9379 13.9882 56.59 14.4953 56.1514 14.9228C55.2826 15.7527 54.2367 16.1676 53.0136 16.1676ZM68.6321 18.3679C70.2769 18.3679 71.7024 17.865 72.9086 16.8591C73.887 16.0377 74.5871 15.015 75.0089 13.7912H72.3139C71.9597 14.5205 71.4451 15.0989 70.7703 15.5263C70.0956 15.9538 69.3659 16.1676 68.5815 16.1676C67.3585 16.1676 66.3505 15.6772 65.5576 14.6965C64.8069 13.7661 64.4316 12.7225 64.4316 11.5657C64.4316 10.518 64.731 9.55402 65.3299 8.67388C66.0975 7.56743 67.2151 7.0142 68.6827 7.0142C69.5009 7.0142 70.1905 7.20071 70.7514 7.57372C71.3123 7.94672 71.8331 8.5691 72.3139 9.44086H75.0089C74.8317 8.74513 74.5323 8.11646 74.1105 7.55486C72.7104 5.72753 70.8969 4.81387 68.6701 4.81387C66.7132 4.81387 65.0895 5.52217 63.799 6.93876C62.6096 8.23801 62.015 9.78034 62.015 11.5657C62.015 13.4685 62.6645 15.0905 63.9634 16.4316C65.2034 17.7225 66.7596 18.3679 68.6321 18.3679ZM79.9742 11.3771L85.2122 18.0284H88.2361L82.8083 11.2263L87.5022 5.15335H84.6302L79.9742 11.3771ZM79.9742 11.3771V0.865845H77.5576V18.0284H79.9742V11.3771ZM95.4155 18.3679C97.2712 18.3679 98.8527 17.7015 100.16 16.3688C100.793 15.7233 101.282 14.9312 101.628 13.9924H99.1859C98.7726 14.6965 98.2517 15.2351 97.6233 15.6081C96.9949 15.9811 96.297 16.1676 95.5294 16.1676C94.2389 16.1676 93.1508 15.6605 92.2651 14.6462C91.7928 14.1098 91.4596 13.4392 91.2656 12.6345H101.969C102.02 12.0896 102.045 11.6789 102.045 11.4023C102.045 10.3126 101.801 9.29207 101.311 8.34069C100.822 7.38931 100.135 6.5909 99.2492 5.94547C98.1189 5.13239 96.8621 4.72586 95.4788 4.72586C94.5425 4.72586 93.6358 4.92284 92.7586 5.3168C91.5018 5.88679 90.5233 6.75854 89.8232 7.93206C89.1569 9.06366 88.8237 10.2749 88.8237 11.5657C88.8237 13.4685 89.4985 15.0947 90.8481 16.4442C92.1302 17.7267 93.6526 18.3679 95.4155 18.3679ZM99.6414 10.7862H91.2529C91.3457 10.1659 91.4638 9.68394 91.6072 9.34027C91.7506 8.9966 91.9741 8.65712 92.2778 8.32183C93.1213 7.3914 94.1798 6.92619 95.4535 6.92619C96.9127 6.92619 98.0725 7.55486 98.9329 8.81219C99.363 9.43247 99.5992 10.0905 99.6414 10.7862ZM107.188 18.0284V10.9874C107.162 8.65712 108.221 7.42912 110.363 7.30339V4.81387C108.904 4.82225 107.787 5.32099 107.011 6.3101V5.15335H104.771V18.0284H107.188Z" fill="#2D313C"/>
<path opacity="0.8" d="M34.6904 27.3271C34.9366 27.3271 35.1612 27.2992 35.3641 27.2434C35.5671 27.1876 35.7409 27.1071 35.8856 27.002C36.0303 26.8969 36.1415 26.767 36.2192 26.6125C36.297 26.458 36.3358 26.2842 36.3358 26.0911C36.3358 25.9366 36.3099 25.7992 36.2581 25.6791C36.2063 25.5589 36.1372 25.4559 36.0508 25.3701C35.9644 25.2842 35.8619 25.2102 35.7431 25.148C35.6243 25.0858 35.498 25.0353 35.3641 24.9967C35.4548 24.9581 35.5423 24.9098 35.6265 24.8519C35.7107 24.7939 35.7874 24.722 35.8565 24.6362C35.9256 24.5504 35.9806 24.4517 36.0216 24.3401C36.0627 24.2285 36.0832 24.0976 36.0832 23.9474C36.0832 23.7757 36.0486 23.6201 35.9795 23.4807C35.9104 23.3412 35.8111 23.2232 35.6816 23.1266C35.552 23.03 35.3965 22.9549 35.2151 22.9013C35.0338 22.8476 34.8308 22.8208 34.6062 22.8208H32.6758V27.3271H34.6904ZM34.522 24.8293H33.1811V23.2779H34.5609C34.8848 23.2779 35.1331 23.3444 35.3058 23.4774C35.4786 23.6105 35.5649 23.7907 35.5649 24.0182C35.5649 24.2843 35.4678 24.486 35.2734 24.6233C35.0791 24.7607 34.8286 24.8293 34.522 24.8293ZM34.7034 26.87H33.1811V25.28H34.6127C35.01 25.28 35.3101 25.3475 35.5131 25.4827C35.7161 25.6179 35.8176 25.81 35.8176 26.0589C35.8176 26.3164 35.7183 26.516 35.5196 26.6576C35.3209 26.7992 35.0489 26.87 34.7034 26.87ZM38.4995 27.3979C38.7888 27.3979 39.0242 27.3346 39.2056 27.208C39.3869 27.0814 39.5338 26.928 39.6461 26.7477V27.3271H40.1384V23.9989H39.6461V25.9044C39.6461 26.0589 39.6201 26.2005 39.5683 26.3293C39.5165 26.458 39.4463 26.5685 39.3578 26.6608C39.2693 26.7531 39.1635 26.8239 39.0404 26.8732C38.9173 26.9226 38.7845 26.9473 38.642 26.9473C38.344 26.9473 38.1151 26.8572 37.9553 26.6769C37.7955 26.4966 37.7156 26.252 37.7156 25.943V23.9989H37.2168V26.0653C37.2168 26.2628 37.246 26.443 37.3043 26.6061C37.3626 26.7692 37.4468 26.9097 37.5569 27.0277C37.667 27.1458 37.8009 27.237 37.9586 27.3013C38.1162 27.3657 38.2965 27.3979 38.4995 27.3979ZM41.8421 23.2714V22.7242H41.272V23.2714H41.8421ZM41.8032 27.3271V23.9989H41.3044V27.3271H41.8032ZM43.5069 27.3271V22.6277H43.0081V27.3271H43.5069ZM46.0722 27.3979C46.2277 27.3979 46.3691 27.3786 46.4965 27.34C46.6239 27.3013 46.7394 27.2477 46.8431 27.179C46.9467 27.1104 47.0406 27.031 47.1249 26.9408C47.2091 26.8507 47.2857 26.7563 47.3548 26.6576V27.3271H47.8536V22.6277H47.3548V24.6362C47.29 24.5418 47.2155 24.4517 47.1313 24.3658C47.0471 24.28 46.9532 24.2049 46.8495 24.1405C46.7459 24.0761 46.6293 24.0246 46.4997 23.986C46.3702 23.9474 46.2277 23.9281 46.0722 23.9281C45.8692 23.9281 45.6727 23.9678 45.4827 24.0472C45.2927 24.1266 45.1221 24.2403 44.9709 24.3884C44.8198 24.5364 44.6989 24.7177 44.6082 24.9323C44.5175 25.1469 44.4721 25.3915 44.4721 25.6662C44.4721 25.9409 44.5175 26.1855 44.6082 26.4001C44.6989 26.6147 44.8198 26.796 44.9709 26.9441C45.1221 27.0921 45.2927 27.2048 45.4827 27.282C45.6727 27.3593 45.8692 27.3979 46.0722 27.3979ZM46.1629 26.9537C46.0031 26.9537 45.8519 26.9237 45.7094 26.8636C45.5669 26.8035 45.4417 26.7166 45.3337 26.6029C45.2257 26.4891 45.1404 26.3529 45.0778 26.1941C45.0152 26.0353 44.9839 25.8572 44.9839 25.6598C44.9839 25.4581 45.0152 25.2767 45.0778 25.1158C45.1404 24.9549 45.2247 24.8197 45.3305 24.7102C45.4363 24.6008 45.5604 24.5171 45.7029 24.4592C45.8455 24.4012 45.9988 24.3723 46.1629 24.3723C46.3183 24.3723 46.4684 24.4034 46.6131 24.4656C46.7578 24.5278 46.8873 24.6147 47.0018 24.7263C47.1162 24.8379 47.2069 24.9731 47.2738 25.1319C47.3408 25.2907 47.3743 25.4666 47.3743 25.6598C47.3743 25.8529 47.3408 26.0299 47.2738 26.1909C47.2069 26.3518 47.1162 26.4881 47.0018 26.5997C46.8873 26.7112 46.7578 26.7981 46.6131 26.8604C46.4684 26.9226 46.3183 26.9537 46.1629 26.9537ZM51.4295 28.3764C51.6799 28.3764 51.8926 28.3056 52.0675 28.164C52.2424 28.0223 52.4011 27.7799 52.5437 27.4365L53.9494 23.9989H53.4182L52.3428 26.7735L51.125 23.9989H50.5744L52.0967 27.3142C51.9974 27.5503 51.8959 27.7133 51.7922 27.8035C51.6886 27.8936 51.5612 27.9387 51.41 27.9387C51.3021 27.9387 51.2081 27.929 51.1282 27.9097C51.0483 27.8904 50.9674 27.8593 50.8853 27.8163L50.7169 28.209C50.8292 28.2648 50.9415 28.3067 51.0537 28.3346C51.166 28.3625 51.2913 28.3764 51.4295 28.3764ZM56.2685 27.4043C56.519 27.4043 56.7522 27.3582 56.9681 27.2659C57.184 27.1737 57.3697 27.0481 57.5252 26.8893C57.6807 26.7305 57.8027 26.5449 57.8912 26.3325C57.9797 26.1201 58.024 25.8958 58.024 25.6598C58.024 25.4237 57.9808 25.2006 57.8945 24.9903C57.8081 24.78 57.6872 24.5965 57.5317 24.4399C57.3762 24.2832 57.1916 24.1587 56.9778 24.0665C56.764 23.9742 56.5319 23.9281 56.2814 23.9281C56.0266 23.9281 55.7924 23.9742 55.5786 24.0665C55.3648 24.1587 55.1802 24.2843 55.0247 24.4431C54.8692 24.6019 54.7483 24.7875 54.6619 24.9999C54.5756 25.2124 54.5324 25.4366 54.5324 25.6726C54.5324 25.9087 54.5756 26.1319 54.6619 26.3421C54.7483 26.5524 54.8692 26.7359 55.0247 26.8926C55.1802 27.0492 55.3637 27.1737 55.5753 27.2659C55.787 27.3582 56.018 27.4043 56.2685 27.4043ZM56.2814 26.9602C56.1044 26.9602 55.9403 26.9258 55.7891 26.8572C55.638 26.7885 55.5073 26.6962 55.3972 26.5803C55.2871 26.4645 55.2007 26.3271 55.1381 26.1683C55.0755 26.0095 55.0442 25.84 55.0442 25.6598C55.0442 25.4795 55.0744 25.3111 55.1348 25.1544C55.1953 24.9978 55.2784 24.8604 55.3842 24.7424C55.49 24.6244 55.6185 24.5321 55.7697 24.4656C55.9208 24.3991 56.0871 24.3658 56.2685 24.3658C56.4455 24.3658 56.6097 24.4002 56.7608 24.4688C56.912 24.5375 57.0437 24.6308 57.156 24.7489C57.2682 24.8669 57.3557 25.0053 57.4183 25.1641C57.4809 25.3229 57.5123 25.4924 57.5123 25.6726C57.5123 25.8529 57.482 26.0213 57.4216 26.178C57.3611 26.3346 57.2769 26.4709 57.1689 26.5868C57.061 26.7027 56.9314 26.7938 56.7802 26.8604C56.6291 26.9269 56.4628 26.9602 56.2814 26.9602ZM60.1553 27.3979C60.4446 27.3979 60.68 27.3346 60.8614 27.208C61.0427 27.0814 61.1896 26.928 61.3019 26.7477V27.3271H61.7942V23.9989H61.3019V25.9044C61.3019 26.0589 61.2759 26.2005 61.2241 26.3293C61.1723 26.458 61.1021 26.5685 61.0136 26.6608C60.9251 26.7531 60.8192 26.8239 60.6962 26.8732C60.5731 26.9226 60.4403 26.9473 60.2978 26.9473C59.9998 26.9473 59.7709 26.8572 59.6111 26.6769C59.4513 26.4966 59.3714 26.252 59.3714 25.943V23.9989H58.8726V26.0653C58.8726 26.2628 58.9018 26.443 58.9601 26.6061C59.0184 26.7692 59.1026 26.9097 59.2127 27.0277C59.3228 27.1458 59.4567 27.237 59.6143 27.3013C59.772 27.3657 59.9523 27.3979 60.1553 27.3979ZM63.4137 27.3271V26.001C63.4137 25.752 63.4482 25.5321 63.5173 25.3411C63.5864 25.1501 63.6814 24.9903 63.8023 24.8615C63.9233 24.7328 64.0647 24.6362 64.2267 24.5718C64.3886 24.5074 64.5603 24.4753 64.7416 24.4753H64.7805V23.9409C64.6207 23.9367 64.4717 23.956 64.3335 23.9989C64.1953 24.0418 64.0679 24.1051 63.9513 24.1888C63.8347 24.2725 63.7311 24.3723 63.6404 24.4881C63.5497 24.604 63.4741 24.7306 63.4137 24.868V23.9989H62.9149V27.3271H63.4137ZM68.8875 27.3979C69.043 27.3979 69.1844 27.3786 69.3118 27.34C69.4392 27.3013 69.5548 27.2477 69.6584 27.179C69.7621 27.1104 69.856 27.031 69.9402 26.9408C70.0244 26.8507 70.1011 26.7563 70.1702 26.6576V27.3271H70.669V22.6277H70.1702V24.6362C70.1054 24.5418 70.0309 24.4517 69.9467 24.3658C69.8625 24.28 69.7685 24.2049 69.6649 24.1405C69.5612 24.0761 69.4446 24.0246 69.3151 23.986C69.1855 23.9474 69.043 23.9281 68.8875 23.9281C68.6846 23.9281 68.4881 23.9678 68.298 24.0472C68.108 24.1266 67.9374 24.2403 67.7863 24.3884C67.6351 24.5364 67.5142 24.7177 67.4235 24.9323C67.3328 25.1469 67.2875 25.3915 67.2875 25.6662C67.2875 25.9409 67.3328 26.1855 67.4235 26.4001C67.5142 26.6147 67.6351 26.796 67.7863 26.9441C67.9374 27.0921 68.108 27.2048 68.298 27.282C68.4881 27.3593 68.6846 27.3979 68.8875 27.3979ZM68.9782 26.9537C68.8184 26.9537 68.6673 26.9237 68.5248 26.8636C68.3823 26.8035 68.257 26.7166 68.1491 26.6029C68.0411 26.4891 67.9558 26.3529 67.8932 26.1941C67.8306 26.0353 67.7992 25.8572 67.7992 25.6598C67.7992 25.4581 67.8306 25.2767 67.8932 25.1158C67.9558 24.9549 68.04 24.8197 68.1458 24.7102C68.2516 24.6008 68.3758 24.5171 68.5183 24.4592C68.6608 24.4012 68.8141 24.3723 68.9782 24.3723C69.1337 24.3723 69.2838 24.4034 69.4284 24.4656C69.5731 24.5278 69.7027 24.6147 69.8171 24.7263C69.9316 24.8379 70.0223 24.9731 70.0892 25.1319C70.1561 25.2907 70.1896 25.4666 70.1896 25.6598C70.1896 25.8529 70.1561 26.0299 70.0892 26.1909C70.0223 26.3518 69.9316 26.4881 69.8171 26.5997C69.7027 26.7112 69.5731 26.7981 69.4284 26.8604C69.2838 26.9226 69.1337 26.9537 68.9782 26.9537ZM72.282 27.3271V26.001C72.282 25.752 72.3165 25.5321 72.3856 25.3411C72.4547 25.1501 72.5497 24.9903 72.6707 24.8615C72.7916 24.7328 72.933 24.6362 73.095 24.5718C73.2569 24.5074 73.4286 24.4753 73.61 24.4753H73.6488V23.9409C73.489 23.9367 73.34 23.956 73.2019 23.9989C73.0637 24.0418 72.9363 24.1051 72.8197 24.1888C72.703 24.2725 72.5994 24.3723 72.5087 24.4881C72.418 24.604 72.3424 24.7306 72.282 24.868V23.9989H71.7832V27.3271H72.282ZM75.8708 27.4043C76.1903 27.4043 76.4581 27.3475 76.674 27.2337C76.89 27.12 77.0821 26.9687 77.2506 26.7799L76.9396 26.5031C76.8014 26.6447 76.6492 26.7584 76.4829 26.8443C76.3167 26.9301 76.1169 26.973 75.8837 26.973C75.7369 26.973 75.5965 26.9484 75.4627 26.899C75.3288 26.8496 75.2079 26.7767 75.0999 26.6801C74.9919 26.5836 74.9034 26.4655 74.8343 26.3261C74.7652 26.1866 74.722 26.0267 74.7047 25.8465H77.3607C77.365 25.8164 77.3672 25.7885 77.3672 25.7628V25.692C77.3672 25.4473 77.3326 25.2177 77.2635 25.0031C77.1944 24.7886 77.0929 24.6019 76.9591 24.4431C76.8252 24.2843 76.6611 24.1587 76.4667 24.0665C76.2724 23.9742 76.0522 23.9281 75.806 23.9281C75.5728 23.9281 75.3579 23.9731 75.1614 24.0633C74.9649 24.1534 74.7954 24.2768 74.6529 24.4334C74.5104 24.5901 74.3992 24.7746 74.3193 24.987C74.2394 25.1995 74.1995 25.4259 74.1995 25.6662C74.1995 25.9237 74.2437 26.1598 74.3323 26.3743C74.4208 26.5889 74.5406 26.7724 74.6918 26.9247C74.8429 27.0771 75.02 27.1951 75.223 27.2788C75.4259 27.3625 75.6419 27.4043 75.8708 27.4043ZM76.8619 25.4795H74.7047C74.722 25.3164 74.7609 25.1662 74.8213 25.0289C74.8818 24.8916 74.9595 24.7725 75.0545 24.6716C75.1496 24.5707 75.2597 24.4914 75.3849 24.4334C75.5102 24.3755 75.6462 24.3465 75.793 24.3465C75.9615 24.3465 76.1094 24.3776 76.2368 24.4399C76.3642 24.5021 76.4721 24.5847 76.5607 24.6877C76.6492 24.7907 76.7183 24.9109 76.768 25.0482C76.8176 25.1855 76.8489 25.3293 76.8619 25.4795ZM79.2393 27.3979C79.5373 27.3979 79.7845 27.34 79.981 27.2241C80.1775 27.1082 80.3341 26.9752 80.4507 26.825V27.3271H80.93V25.2928C80.93 24.8508 80.807 24.5171 80.5608 24.2918C80.3146 24.0665 79.9627 23.9538 79.5049 23.9538C79.2587 23.9538 79.0406 23.9785 78.8506 24.0279C78.6606 24.0772 78.4727 24.1448 78.287 24.2306L78.436 24.6362C78.5915 24.5632 78.7502 24.5042 78.9122 24.4592C79.0741 24.4141 79.2544 24.3916 79.4531 24.3916C79.7683 24.3916 80.0134 24.4678 80.1883 24.6201C80.3632 24.7725 80.4507 24.9988 80.4507 25.2993V25.4151C80.2995 25.3722 80.1441 25.3379 79.9843 25.3121C79.8245 25.2864 79.6366 25.2735 79.4207 25.2735C79.2091 25.2735 79.0158 25.2971 78.8409 25.3443C78.666 25.3915 78.5149 25.4602 78.3875 25.5503C78.2601 25.6405 78.1618 25.7531 78.0927 25.8883C78.0236 26.0235 77.9891 26.1791 77.9891 26.355C77.9891 26.531 78.0247 26.6833 78.0959 26.8121C78.1672 26.9408 78.2622 27.0492 78.381 27.1372C78.4997 27.2252 78.6336 27.2906 78.7826 27.3335C78.9316 27.3764 79.0838 27.3979 79.2393 27.3979ZM79.3365 27.0052C79.2242 27.0052 79.1173 26.9902 79.0158 26.9602C78.9143 26.9301 78.8247 26.8861 78.747 26.8282C78.6692 26.7702 78.6077 26.7005 78.5624 26.619C78.517 26.5374 78.4943 26.443 78.4943 26.3357C78.4943 26.1211 78.5786 25.9516 78.747 25.8271C78.9154 25.7027 79.1572 25.6405 79.4725 25.6405C79.6798 25.6405 79.8644 25.6555 80.0264 25.6855C80.1883 25.7156 80.3319 25.7477 80.4572 25.7821V26.104C80.4572 26.237 80.428 26.3582 80.3697 26.4677C80.3114 26.5771 80.2315 26.6715 80.13 26.7509C80.0285 26.8303 79.9098 26.8926 79.7737 26.9376C79.6377 26.9827 79.4919 27.0052 79.3365 27.0052ZM82.4912 27.3271V25.428C82.4912 25.2735 82.515 25.133 82.5625 25.0064C82.61 24.8798 82.6759 24.7692 82.7601 24.6748C82.8443 24.5804 82.9425 24.5074 83.0548 24.4559C83.1671 24.4044 83.2902 24.3787 83.4241 24.3787C83.6918 24.3787 83.9023 24.4656 84.0557 24.6394C84.209 24.8132 84.2856 25.0568 84.2856 25.3701V27.3271H84.778V25.4087C84.778 25.2456 84.8028 25.0997 84.8524 24.971C84.9021 24.8422 84.9691 24.7338 85.0533 24.6459C85.1375 24.5579 85.2357 24.4914 85.348 24.4463C85.4603 24.4012 85.5791 24.3787 85.7043 24.3787C85.9764 24.3787 86.1891 24.4656 86.3424 24.6394C86.4957 24.8132 86.5723 25.0611 86.5723 25.383V27.3271H87.0711V25.2671C87.0711 24.8508 86.961 24.5235 86.7408 24.2854C86.5205 24.0472 86.2161 23.9281 85.8274 23.9281C85.6805 23.9281 85.5477 23.9452 85.429 23.9796C85.3102 24.0139 85.2033 24.0611 85.1083 24.1212C85.0133 24.1813 84.928 24.2521 84.8524 24.3336C84.7769 24.4152 84.7089 24.501 84.6484 24.5911C84.5577 24.4023 84.4238 24.2446 84.2468 24.118C84.0697 23.9914 83.8451 23.9281 83.573 23.9281C83.4305 23.9281 83.3053 23.9452 83.1973 23.9796C83.0894 24.0139 82.9922 24.06 82.9058 24.118C82.8195 24.1759 82.7428 24.2435 82.6759 24.3208C82.6089 24.398 82.5474 24.4774 82.4912 24.5589V23.9989H81.9924V27.3271H82.4912ZM90.5952 27.3271V25.4216C90.5952 25.2671 90.62 25.1255 90.6697 24.9967C90.7193 24.868 90.7895 24.7574 90.8802 24.6652C90.9709 24.5729 91.0778 24.5021 91.2008 24.4527C91.3239 24.4034 91.4567 24.3787 91.5992 24.3787C91.8972 24.3787 92.1261 24.4688 92.2859 24.6491C92.4457 24.8293 92.5256 25.074 92.5256 25.383V27.3271H93.0244V25.2606C93.0244 25.0632 92.9952 24.883 92.9369 24.7199C92.8786 24.5568 92.7944 24.4162 92.6843 24.2982C92.5742 24.1802 92.4403 24.089 92.2827 24.0246C92.125 23.9603 91.9447 23.9281 91.7418 23.9281C91.4524 23.9281 91.217 23.9914 91.0357 24.118C90.8543 24.2446 90.7074 24.398 90.5952 24.5783V22.6277H90.0963V27.3271H90.5952ZM95.6156 27.4043C95.8661 27.4043 96.0993 27.3582 96.3152 27.2659C96.5311 27.1737 96.7168 27.0481 96.8723 26.8893C97.0278 26.7305 97.1498 26.5449 97.2383 26.3325C97.3268 26.1201 97.3711 25.8958 97.3711 25.6598C97.3711 25.4237 97.3279 25.2006 97.2415 24.9903C97.1552 24.78 97.0342 24.5965 96.8788 24.4399C96.7233 24.2832 96.5387 24.1587 96.3249 24.0665C96.1111 23.9742 95.879 23.9281 95.6285 23.9281C95.3737 23.9281 95.1394 23.9742 94.9257 24.0665C94.7119 24.1587 94.5273 24.2843 94.3718 24.4431C94.2163 24.6019 94.0954 24.7875 94.009 24.9999C93.9227 25.2124 93.8795 25.4366 93.8795 25.6726C93.8795 25.9087 93.9227 26.1319 94.009 26.3421C94.0954 26.5524 94.2163 26.7359 94.3718 26.8926C94.5273 27.0492 94.7108 27.1737 94.9224 27.2659C95.134 27.3582 95.3651 27.4043 95.6156 27.4043ZM95.6285 26.9602C95.4515 26.9602 95.2874 26.9258 95.1362 26.8572C94.9851 26.7885 94.8544 26.6962 94.7443 26.5803C94.6342 26.4645 94.5478 26.3271 94.4852 26.1683C94.4225 26.0095 94.3912 25.84 94.3912 25.6598C94.3912 25.4795 94.4215 25.3111 94.4819 25.1544C94.5424 24.9978 94.6255 24.8604 94.7313 24.7424C94.8371 24.6244 94.9656 24.5321 95.1168 24.4656C95.2679 24.3991 95.4342 24.3658 95.6156 24.3658C95.7926 24.3658 95.9567 24.4002 96.1079 24.4688C96.259 24.5375 96.3908 24.6308 96.503 24.7489C96.6153 24.8669 96.7028 25.0053 96.7654 25.1641C96.828 25.3229 96.8593 25.4924 96.8593 25.6726C96.8593 25.8529 96.8291 26.0213 96.7686 26.178C96.7082 26.3346 96.624 26.4709 96.516 26.5868C96.408 26.7027 96.2785 26.7938 96.1273 26.8604C95.9762 26.9269 95.8099 26.9602 95.6285 26.9602ZM98.7703 27.3271V25.428C98.7703 25.2735 98.7941 25.133 98.8416 25.0064C98.8891 24.8798 98.955 24.7692 99.0392 24.6748C99.1234 24.5804 99.2216 24.5074 99.3339 24.4559C99.4462 24.4044 99.5693 24.3787 99.7032 24.3787C99.9709 24.3787 100.181 24.4656 100.335 24.6394C100.488 24.8132 100.565 25.0568 100.565 25.3701V27.3271H101.057V25.4087C101.057 25.2456 101.082 25.0997 101.132 24.971C101.181 24.8422 101.248 24.7338 101.332 24.6459C101.417 24.5579 101.515 24.4914 101.627 24.4463C101.739 24.4012 101.858 24.3787 101.983 24.3787C102.255 24.3787 102.468 24.4656 102.621 24.6394C102.775 24.8132 102.851 25.0611 102.851 25.383V27.3271H103.35V25.2671C103.35 24.8508 103.24 24.5235 103.02 24.2854C102.8 24.0472 102.495 23.9281 102.106 23.9281C101.96 23.9281 101.827 23.9452 101.708 23.9796C101.589 24.0139 101.482 24.0611 101.387 24.1212C101.292 24.1813 101.207 24.2521 101.132 24.3336C101.056 24.4152 100.988 24.501 100.927 24.5911C100.837 24.4023 100.703 24.2446 100.526 24.118C100.349 23.9914 100.124 23.9281 99.8521 23.9281C99.7096 23.9281 99.5844 23.9452 99.4764 23.9796C99.3685 24.0139 99.2713 24.06 99.1849 24.118C99.0985 24.1759 99.0219 24.2435 98.9549 24.3208C98.888 24.398 98.8265 24.4774 98.7703 24.5589V23.9989H98.2715V27.3271H98.7703ZM105.896 27.4043C106.216 27.4043 106.483 27.3475 106.699 27.2337C106.915 27.12 107.107 26.9687 107.276 26.7799L106.965 26.5031C106.827 26.6447 106.675 26.7584 106.508 26.8443C106.342 26.9301 106.142 26.973 105.909 26.973C105.762 26.973 105.622 26.9484 105.488 26.899C105.354 26.8496 105.233 26.7767 105.125 26.6801C105.017 26.5836 104.929 26.4655 104.86 26.3261C104.79 26.1866 104.747 26.0267 104.73 25.8465H107.386C107.39 25.8164 107.392 25.7885 107.392 25.7628V25.692C107.392 25.4473 107.358 25.2177 107.289 25.0031C107.22 24.7886 107.118 24.6019 106.984 24.4431C106.85 24.2843 106.686 24.1587 106.492 24.0665C106.298 23.9742 106.077 23.9281 105.831 23.9281C105.598 23.9281 105.383 23.9731 105.187 24.0633C104.99 24.1534 104.821 24.2768 104.678 24.4334C104.536 24.5901 104.424 24.7746 104.345 24.987C104.265 25.1995 104.225 25.4259 104.225 25.6662C104.225 25.9237 104.269 26.1598 104.358 26.3743C104.446 26.5889 104.566 26.7724 104.717 26.9247C104.868 27.0771 105.045 27.1951 105.248 27.2788C105.451 27.3625 105.667 27.4043 105.896 27.4043ZM106.887 25.4795H104.73C104.747 25.3164 104.786 25.1662 104.847 25.0289C104.907 24.8916 104.985 24.7725 105.08 24.6716C105.175 24.5707 105.285 24.4914 105.41 24.4334C105.535 24.3755 105.672 24.3465 105.818 24.3465C105.987 24.3465 106.135 24.3776 106.262 24.4399C106.389 24.5021 106.497 24.5847 106.586 24.6877C106.675 24.7907 106.744 24.9109 106.793 25.0482C106.843 25.1855 106.874 25.3293 106.887 25.4795Z" fill="#061E5C"/>
<path fill-rule="evenodd" clip-rule="evenodd" d="M12.241 15.5248V16.9512L0.00488281 28.3999V26.9736L12.241 15.5248ZM12.6009 15.5248L24.837 26.9736V28.3999L12.6009 16.9512V15.5248ZM12.241 11.5908V13.017L0.00488281 24.4659V23.0397L12.241 11.5908ZM12.6009 11.5908L24.837 23.0397V24.4659L12.6009 13.0171V11.5908ZM12.241 8.01437V9.44072L0.00488281 20.8895V19.4633L12.241 8.01437ZM12.6009 8.01437L24.837 19.4633V20.8895L12.6009 9.44074V8.01437ZM12.241 4.43796V5.86417L0.00488281 17.313V15.8868L12.241 4.43796ZM12.6009 4.43796L24.837 15.8868V17.313L12.6009 5.86433V4.43796ZM12.241 0.503906V1.93026L0.00488281 13.379V11.9526L12.241 0.503906ZM12.6009 0.503906L24.837 11.9526V13.379L12.6009 1.93027V0.503906Z" fill="#6B6B6B"/>
</g>
</svg>
