<svg width="19" height="14" viewBox="0 0 19 14" fill="none" xmlns="http://www.w3.org/2000/svg">
<path d="M0.392303 1.80745C2.96897 3.78904 7.49021 7.27527 8.81907 8.36229C8.99745 8.509 9.18879 8.58358 9.38742 8.58358C9.58565 8.58358 9.77665 8.5097 9.95464 8.36368C11.2846 7.27561 15.8059 3.78904 18.3826 1.80745C18.543 1.68431 18.5675 1.46788 18.4376 1.31734C18.1373 0.969474 17.6897 0.77002 17.2099 0.77002H1.56491C1.08518 0.77002 0.637503 0.969474 0.337301 1.31737C0.207423 1.46788 0.231881 1.68431 0.392303 1.80745Z" fill="#F6E96F"/>
<path d="M18.5472 2.87833C18.4085 2.81972 18.2454 2.84017 18.1301 2.92967C15.2726 5.1294 11.6257 7.949 10.4783 8.88791C9.83427 9.41581 8.94048 9.41581 8.29498 8.88721C7.07195 7.88654 2.97657 4.72496 0.643965 2.92964C0.527837 2.84014 0.364371 2.82039 0.226865 2.87829C0.0886267 2.9366 0 3.06217 0 3.20055V12.1327C0 12.9163 0.701644 13.5534 1.56452 13.5534H17.2096C18.0724 13.5534 18.7741 12.9163 18.7741 12.1327V3.20055C18.7741 3.06217 18.6854 2.93627 18.5472 2.87833Z" fill="#F6E96F"/>
</svg>
