<svg width="32" height="32" viewBox="0 0 32 32" fill="none" xmlns="http://www.w3.org/2000/svg">
<path d="M25.6321 9.09355C24.7502 7.29261 21.9004 5.40156 20.5857 4.68116L13.3698 18.8738C16.4151 16.5289 23.131 11.2899 25.6321 9.09355Z" fill="#F6E96F"/>
<path d="M4.84163 5.67056C2.99059 6.38825 0.866989 9.07864 0.0365707 10.3341L13.655 18.3526C11.6371 15.0652 6.76452 8.39604 4.84163 5.67056Z" fill="#F6E96F"/>
<path d="M20.2983 31.4383C22.1485 30.7185 24.2691 28.0257 25.0981 26.7693L13.1552 16.8409C15.1768 20.126 18.3723 28.7151 20.2983 31.4383Z" fill="#F6E96F"/>
<path d="M28.7671 20.9948C29.4695 19.1261 28.8936 15.738 28.5179 14.2776L13.3114 18.5056C17.089 19.1804 25.4687 20.623 28.7671 20.9948Z" fill="#F6E96F"/>
<path d="M15.0258 3.18655C13.127 2.60948 9.81183 3.42202 8.39163 3.90043L13.6272 18.8927C14.0349 15.0494 14.8852 6.52741 15.0258 3.18655Z" fill="#F6E96F"/>
</svg>
