<svg width="72" height="16" viewBox="0 0 72 16" fill="none" xmlns="http://www.w3.org/2000/svg">
<path d="M66.667 5.32568C67.7279 5.32568 68.7453 5.74656 69.4954 6.49573C70.2456 7.24489 70.667 8.26098 70.667 9.32046V13.981H68.0003V9.32046C68.0003 8.9673 67.8598 8.62861 67.6098 8.37888C67.3598 8.12916 67.0206 7.98887 66.667 7.98887C66.3134 7.98887 65.9742 8.12916 65.7242 8.37888C65.4741 8.62861 65.3337 8.9673 65.3337 9.32046V13.981H62.667V9.32046C62.667 8.26098 63.0884 7.24489 63.8386 6.49573C64.5887 5.74656 65.6061 5.32568 66.667 5.32568V5.32568Z" stroke="#535353" stroke-width="1.2" stroke-linecap="round" stroke-linejoin="round"/>
<path d="M59.9997 5.99158H57.333V13.9811H59.9997V5.99158Z" stroke="#535353" stroke-width="1.2" stroke-linecap="round" stroke-linejoin="round"/>
<path d="M58.6663 3.99424C59.4027 3.99424 59.9997 3.39807 59.9997 2.66265C59.9997 1.92723 59.4027 1.33105 58.6663 1.33105C57.93 1.33105 57.333 1.92723 57.333 2.66265C57.333 3.39807 57.93 3.99424 58.6663 3.99424Z" stroke="#535353" stroke-width="1.2" stroke-linecap="round" stroke-linejoin="round"/>
<g clip-path="url(#clip0_106_335)">
<path d="M39.333 1.33105H32.6663C30.8254 1.33105 29.333 2.82149 29.333 4.66004V11.318C29.333 13.1566 30.8254 14.647 32.6663 14.647H39.333C41.174 14.647 42.6663 13.1566 42.6663 11.318V4.66004C42.6663 2.82149 41.174 1.33105 39.333 1.33105Z" stroke="#535353" stroke-width="1.2" stroke-linecap="round" stroke-linejoin="round"/>
<path d="M38.6668 7.56954C38.7491 8.12365 38.6543 8.68956 38.396 9.18677C38.1376 9.68399 37.7289 10.0872 37.2279 10.339C36.7269 10.5909 36.1591 10.6785 35.6053 10.5895C35.0515 10.5006 34.54 10.2394 34.1434 9.84334C33.7467 9.44725 33.4853 8.93634 33.3962 8.38329C33.3071 7.83024 33.3948 7.2632 33.647 6.76284C33.8992 6.26248 34.3029 5.85428 34.8008 5.59628C35.2987 5.33828 35.8653 5.24364 36.4201 5.32581C36.9861 5.40962 37.51 5.67299 37.9146 6.07703C38.3192 6.48106 38.5829 7.00433 38.6668 7.56954Z" stroke="#535353" stroke-width="1.2" stroke-linecap="round" stroke-linejoin="round"/>
<path d="M39.667 4.32715H39.6745" stroke="#535353" stroke-width="1.2" stroke-linecap="round" stroke-linejoin="round"/>
</g>
<g clip-path="url(#clip1_106_335)">
<path d="M12.0003 1.33105H10.0003C9.11627 1.33105 8.26842 1.68179 7.6433 2.30609C7.01818 2.9304 6.66699 3.77714 6.66699 4.66004V6.65743H4.66699V9.32061H6.66699V14.647H9.33366V9.32061H11.3337L12.0003 6.65743H9.33366V4.66004C9.33366 4.48346 9.4039 4.31411 9.52892 4.18925C9.65395 4.06439 9.82351 3.99424 10.0003 3.99424H12.0003V1.33105Z" stroke="#535353" stroke-width="1.2" stroke-linecap="round" stroke-linejoin="round"/>
</g>
<defs>
<clipPath id="clip0_106_335">
<rect width="16" height="15.9791" fill="white" transform="translate(28 -0.000610352)"/>
</clipPath>
<clipPath id="clip1_106_335">
<rect width="16" height="15.9791" fill="white" transform="translate(0 -0.000610352)"/>
</clipPath>
</defs>
</svg>
