<svg width="32" height="32" viewBox="0 0 32 32" fill="none" xmlns="http://www.w3.org/2000/svg">
<path d="M25.6321 8.83067C24.7502 7.03897 21.9004 5.15763 20.5857 4.44092L13.3698 18.5607C16.4151 16.2278 23.131 11.0157 25.6321 8.83067Z" fill="#F6E96F"/>
<path d="M4.84163 5.42535C2.99059 6.13935 0.866989 8.81594 0.0365707 10.065L13.655 18.0423C11.6371 14.7718 6.76452 8.13685 4.84163 5.42535Z" fill="#F6E96F"/>
<path d="M20.2983 31.0608C22.1485 30.3447 24.2691 27.6657 25.0981 26.4157L13.1552 16.5384C15.1768 19.8065 18.3723 28.3515 20.2983 31.0608Z" fill="#F6E96F"/>
<path d="M28.7671 20.6712C29.4695 18.812 28.8936 15.4413 28.5179 13.9884L13.3114 18.1947C17.089 18.8661 25.4687 20.3013 28.7671 20.6712Z" fill="#F6E96F"/>
<path d="M15.0258 2.95386C13.127 2.37976 9.81183 3.18813 8.39163 3.66408L13.6272 18.5794C14.0349 14.7558 14.8852 6.27758 15.0258 2.95386Z" fill="#F6E96F"/>
</svg>
