<svg width="73" height="17" viewBox="0 0 73 17" fill="none" xmlns="http://www.w3.org/2000/svg">
<path d="M67.333 5.66003C68.4602 5.66003 69.5412 6.10722 70.3382 6.90321C71.1352 7.6992 71.583 8.77879 71.583 9.90449V14.8563H68.7497V9.90449C68.7497 9.52925 68.6004 9.16939 68.3347 8.90406C68.0691 8.63873 67.7087 8.48967 67.333 8.48967C66.9573 8.48967 66.5969 8.63873 66.3313 8.90406C66.0656 9.16939 65.9163 9.52925 65.9163 9.90449V14.8563H63.083V9.90449C63.083 8.77879 63.5308 7.6992 64.3278 6.90321C65.1248 6.10722 66.2058 5.66003 67.333 5.66003V5.66003Z" stroke="#535353" stroke-width="1.2" stroke-linecap="round" stroke-linejoin="round"/>
<path d="M60.2503 6.36743H57.417V14.8563H60.2503V6.36743Z" stroke="#535353" stroke-width="1.2" stroke-linecap="round" stroke-linejoin="round"/>
<path d="M58.8337 4.24516C59.6161 4.24516 60.2503 3.61173 60.2503 2.83035C60.2503 2.04896 59.6161 1.41553 58.8337 1.41553C58.0513 1.41553 57.417 2.04896 57.417 2.83035C57.417 3.61173 58.0513 4.24516 58.8337 4.24516Z" stroke="#535353" stroke-width="1.2" stroke-linecap="round" stroke-linejoin="round"/>
<path d="M40.042 1.41553H32.9587C31.0027 1.41553 29.417 2.99912 29.417 4.95257V12.0267C29.417 13.9801 31.0027 15.5637 32.9587 15.5637H40.042C41.998 15.5637 43.5837 13.9801 43.5837 12.0267V4.95257C43.5837 2.99912 41.998 1.41553 40.042 1.41553Z" stroke="#535353" stroke-width="1.2" stroke-linecap="round" stroke-linejoin="round"/>
<path d="M39.3333 8.04397C39.4207 8.63271 39.32 9.23399 39.0455 9.76228C38.7711 10.2906 38.3368 10.719 37.8044 10.9866C37.2721 11.2541 36.6689 11.3473 36.0805 11.2527C35.4921 11.1582 34.9485 10.8807 34.5271 10.4599C34.1057 10.039 33.8279 9.49619 33.7333 8.90858C33.6386 8.32096 33.7318 7.71849 33.9998 7.18686C34.2677 6.65523 34.6967 6.2215 35.2257 5.94738C35.7546 5.67326 36.3567 5.5727 36.9462 5.66C37.5475 5.74906 38.1042 6.02889 38.5341 6.45818C38.9639 6.88746 39.2441 7.44344 39.3333 8.04397Z" stroke="#535353" stroke-width="1.2" stroke-linecap="round" stroke-linejoin="round"/>
<path d="M40.3955 4.59888H40.403" stroke="#535353" stroke-width="1.2" stroke-linecap="round" stroke-linejoin="round"/>
<path d="M12.7497 1.41553H10.6247C9.68537 1.41553 8.78453 1.78818 8.12034 2.4515C7.45615 3.11483 7.08301 4.01449 7.08301 4.95257V7.0748H4.95801V9.90443H7.08301V15.5637H9.91634V9.90443H12.0413L12.7497 7.0748H9.91634V4.95257C9.91634 4.76496 9.99097 4.58502 10.1238 4.45236C10.2566 4.31969 10.4368 4.24516 10.6247 4.24516H12.7497V1.41553Z" stroke="#535353" stroke-width="1.2" stroke-linecap="round" stroke-linejoin="round"/>
</svg>
