<svg width="73" height="17" viewBox="0 0 73 17" fill="none" xmlns="http://www.w3.org/2000/svg">
<path d="M67.333 5.65869C68.4602 5.65869 69.5412 6.10587 70.3382 6.90186C71.1352 7.69785 71.583 8.77745 71.583 9.90314V14.855H68.7497V9.90314C68.7497 9.52791 68.6004 9.16805 68.3347 8.90272C68.0691 8.63739 67.7087 8.48833 67.333 8.48833C66.9573 8.48833 66.5969 8.63739 66.3313 8.90272C66.0656 9.16805 65.9163 9.52791 65.9163 9.90314V14.855H63.083V9.90314C63.083 8.77745 63.5308 7.69785 64.3278 6.90186C65.1248 6.10587 66.2058 5.65869 67.333 5.65869V5.65869Z" stroke="#535353" stroke-width="1.2" stroke-linecap="round" stroke-linejoin="round"/>
<path d="M60.2503 6.36609H57.417V14.855H60.2503V6.36609Z" stroke="#535353" stroke-width="1.2" stroke-linecap="round" stroke-linejoin="round"/>
<path d="M58.8337 4.24382C59.6161 4.24382 60.2503 3.61038 60.2503 2.829C60.2503 2.04762 59.6161 1.41418 58.8337 1.41418C58.0513 1.41418 57.417 2.04762 57.417 2.829C57.417 3.61038 58.0513 4.24382 58.8337 4.24382Z" stroke="#535353" stroke-width="1.2" stroke-linecap="round" stroke-linejoin="round"/>
<g clip-path="url(#clip0_106_425)">
<path d="M40.042 1.41418H32.9587C31.0027 1.41418 29.417 2.99777 29.417 4.95123V12.0253C29.417 13.9788 31.0027 15.5624 32.9587 15.5624H40.042C41.998 15.5624 43.5837 13.9788 43.5837 12.0253V4.95123C43.5837 2.99777 41.998 1.41418 40.042 1.41418Z" stroke="#535353" stroke-width="1.2" stroke-linecap="round" stroke-linejoin="round"/>
<path d="M39.3333 8.04263C39.4207 8.63137 39.32 9.23264 39.0455 9.76094C38.7711 10.2892 38.3368 10.7176 37.8044 10.9852C37.2721 11.2528 36.6689 11.3459 36.0805 11.2514C35.4921 11.1568 34.9485 10.8794 34.5271 10.4585C34.1057 10.0377 33.8279 9.49485 33.7333 8.90723C33.6386 8.31962 33.7318 7.71715 33.9998 7.18551C34.2677 6.65388 34.6967 6.22016 35.2257 5.94604C35.7546 5.67192 36.3567 5.57136 36.9462 5.65866C37.5475 5.74771 38.1042 6.02755 38.5341 6.45684C38.9639 6.88612 39.2441 7.44209 39.3333 8.04263Z" stroke="#535353" stroke-width="1.2" stroke-linecap="round" stroke-linejoin="round"/>
<path d="M40.3955 4.59753H40.403" stroke="#535353" stroke-width="1.2" stroke-linecap="round" stroke-linejoin="round"/>
</g>
<g clip-path="url(#clip1_106_425)">
<path d="M12.7497 1.41418H10.6247C9.68537 1.41418 8.78453 1.78684 8.12034 2.45016C7.45615 3.11349 7.08301 4.01315 7.08301 4.95123V7.07346H4.95801V9.90309H7.08301V15.5624H9.91634V9.90309H12.0413L12.7497 7.07346H9.91634V4.95123C9.91634 4.76361 9.99097 4.58368 10.1238 4.45102C10.2566 4.31835 10.4368 4.24382 10.6247 4.24382H12.7497V1.41418Z" stroke="#535353" stroke-width="1.2" stroke-linecap="round" stroke-linejoin="round"/>
</g>
<defs>
<clipPath id="clip0_106_425">
<rect width="17" height="16.9778" fill="white" transform="translate(28 -0.000610352)"/>
</clipPath>
<clipPath id="clip1_106_425">
<rect width="17" height="16.9778" fill="white" transform="translate(0 -0.000610352)"/>
</clipPath>
</defs>
</svg>
