<svg width="16" height="17" viewBox="0 0 16 17" fill="none" xmlns="http://www.w3.org/2000/svg">
<path d="M14.7208 11.4353C13.7409 11.4353 12.7788 11.2828 11.8671 10.9829C11.4203 10.8313 10.8711 10.9704 10.5984 11.2491L8.79879 12.601C6.71175 11.4923 5.42618 10.2134 4.32733 8.15202L5.64587 6.40776C5.98844 6.0673 6.11131 5.56997 5.9641 5.10333C5.6615 4.19121 5.50779 3.23418 5.50779 2.25859C5.50783 1.55383 4.93169 0.980469 4.22355 0.980469H1.28428C0.576141 0.980469 0 1.55383 0 2.25855C0 10.3365 6.60368 16.9083 14.7208 16.9083C15.429 16.9083 16.0051 16.3349 16.0051 15.6302V12.7133C16.0051 12.0086 15.4289 11.4353 14.7208 11.4353Z" fill="#F6E96F"/>
</svg>
