<svg width="73" height="17" viewBox="0 0 73 17" fill="none" xmlns="http://www.w3.org/2000/svg">
<path d="M67.333 5.65869C68.4602 5.65869 69.5412 6.10587 70.3382 6.90186C71.1352 7.69785 71.583 8.77745 71.583 9.90314V14.855H68.7497V9.90314C68.7497 9.52791 68.6004 9.16805 68.3347 8.90272C68.0691 8.63739 67.7087 8.48833 67.333 8.48833C66.9573 8.48833 66.5969 8.63739 66.3313 8.90272C66.0656 9.16805 65.9163 9.52791 65.9163 9.90314V14.855H63.083V9.90314C63.083 8.77745 63.5308 7.69785 64.3278 6.90186C65.1248 6.10587 66.2058 5.65869 67.333 5.65869V5.65869Z" stroke="#535353" stroke-width="1.2" stroke-linecap="round" stroke-linejoin="round"/>
<path d="M60.2503 6.36621H57.417V14.8551H60.2503V6.36621Z" stroke="#535353" stroke-width="1.2" stroke-linecap="round" stroke-linejoin="round"/>
<path d="M58.8337 4.24394C59.6161 4.24394 60.2503 3.61051 60.2503 2.82912C60.2503 2.04774 59.6161 1.41431 58.8337 1.41431C58.0513 1.41431 57.417 2.04774 57.417 2.82912C57.417 3.61051 58.0513 4.24394 58.8337 4.24394Z" stroke="#535353" stroke-width="1.2" stroke-linecap="round" stroke-linejoin="round"/>
<g clip-path="url(#clip0_106_395)">
<path d="M40.042 1.41431H32.9587C31.0027 1.41431 29.417 2.9979 29.417 4.95135V12.0254C29.417 13.9789 31.0027 15.5625 32.9587 15.5625H40.042C41.998 15.5625 43.5837 13.9789 43.5837 12.0254V4.95135C43.5837 2.9979 41.998 1.41431 40.042 1.41431Z" stroke="#535353" stroke-width="1.2" stroke-linecap="round" stroke-linejoin="round"/>
<path d="M39.3333 8.04275C39.4207 8.63149 39.32 9.23277 39.0455 9.76106C38.7711 10.2894 38.3368 10.7178 37.8044 10.9853C37.2721 11.2529 36.6689 11.3461 36.0805 11.2515C35.4921 11.157 34.9485 10.8795 34.5271 10.4587C34.1057 10.0378 33.8279 9.49497 33.7333 8.90736C33.6386 8.31974 33.7318 7.71727 33.9998 7.18564C34.2677 6.654 34.6967 6.22028 35.2257 5.94616C35.7546 5.67204 36.3567 5.57148 36.9462 5.65878C37.5475 5.74784 38.1042 6.02767 38.5341 6.45696C38.9639 6.88624 39.2441 7.44222 39.3333 8.04275Z" stroke="#535353" stroke-width="1.2" stroke-linecap="round" stroke-linejoin="round"/>
<path d="M40.3955 4.59766H40.403" stroke="#535353" stroke-width="1.2" stroke-linecap="round" stroke-linejoin="round"/>
</g>
<g clip-path="url(#clip1_106_395)">
<path d="M12.7497 1.41431H10.6247C9.68537 1.41431 8.78453 1.78696 8.12034 2.45028C7.45615 3.11361 7.08301 4.01327 7.08301 4.95135V7.07358H4.95801V9.90321H7.08301V15.5625H9.91634V9.90321H12.0413L12.7497 7.07358H9.91634V4.95135C9.91634 4.76373 9.99097 4.5838 10.1238 4.45114C10.2566 4.31847 10.4368 4.24394 10.6247 4.24394H12.7497V1.41431Z" stroke="#535353" stroke-width="1.2" stroke-linecap="round" stroke-linejoin="round"/>
</g>
<defs>
<clipPath id="clip0_106_395">
<rect width="17" height="16.9778" fill="white" transform="translate(28 -0.000488281)"/>
</clipPath>
<clipPath id="clip1_106_395">
<rect width="17" height="16.9778" fill="white" transform="translate(0 -0.000488281)"/>
</clipPath>
</defs>
</svg>
