<svg width="85" height="30" viewBox="0 0 85 30" fill="none" xmlns="http://www.w3.org/2000/svg">
<g opacity="0.5">
<path d="M44.4497 4.41786C44.2407 3.26856 43.3071 1.80078 40.8408 1.80078C38.9458 1.80078 37.3016 3.1024 37.3016 4.9579C37.3016 6.41183 38.3188 7.51959 39.9909 7.83807L41.3425 8.08732C41.9973 8.21194 42.4014 8.57196 42.4014 9.07046C42.4014 9.67972 41.8719 10.0951 41.008 10.0951C39.6564 10.0951 39.0434 9.30586 38.9598 8.4058L36.9393 8.89044C37.0787 10.2751 38.2491 12.0337 40.9802 12.0337C43.335 12.0337 44.6309 10.469 44.6309 8.93199C44.6309 7.53344 43.6555 6.32875 41.7744 5.98257L40.4507 5.73333C39.7679 5.60871 39.4753 5.26253 39.4753 4.79173C39.4753 4.2517 40.0048 3.73936 40.8269 3.73936C42.0252 3.73936 42.4014 4.51479 42.4711 4.97174L44.4497 4.41786Z" fill="#6B6B6B"/>
<path d="M52.501 11.826H54.8976L51.2191 2.00849H48.6692L44.9488 11.826H47.2619L47.9725 9.83204H51.7904L52.501 11.826ZM49.9093 4.44556L51.0937 7.83807H48.6971L49.9093 4.44556Z" fill="#6B6B6B"/>
<path d="M62.7337 11.826H65.1304L61.4518 2.00849H58.9019L55.1815 11.826H57.4946L58.2052 9.83204H62.0231L62.7337 11.826ZM60.142 4.44556L61.3264 7.83807H58.9298L60.142 4.44556Z" fill="#6B6B6B"/>
<path d="M73.134 4.41786C72.925 3.26856 71.9914 1.80078 69.5251 1.80078C67.6301 1.80078 65.9859 3.1024 65.9859 4.9579C65.9859 6.41183 67.0031 7.51959 68.6751 7.83807L70.0267 8.08732C70.6816 8.21194 71.0857 8.57196 71.0857 9.07046C71.0857 9.67972 70.5562 10.0951 69.6923 10.0951C68.3407 10.0951 67.7276 9.30586 67.644 8.4058L65.6236 8.89044C65.7629 10.2751 66.9334 12.0337 69.6644 12.0337C72.0193 12.0337 73.3151 10.469 73.3151 8.93199C73.3151 7.53344 72.3398 6.32875 70.4587 5.98257L69.1349 5.73333C68.4522 5.60871 68.1596 5.26253 68.1596 4.79173C68.1596 4.2517 68.6891 3.73936 69.5112 3.73936C70.7095 3.73936 71.0857 4.51479 71.1554 4.97174L73.134 4.41786Z" fill="#6B6B6B"/>
<path d="M45.1325 21.4081V19.3172H36.8418V21.4081H39.8794V29.1348H42.0809V21.4081H45.1325Z" fill="#6B6B6B"/>
<path d="M47.9637 24.2191C47.9637 22.1697 49.4407 21.242 50.8201 21.242C52.1856 21.242 53.6626 22.1697 53.6626 24.2191C53.6626 26.2684 52.1856 27.1823 50.8201 27.1823C49.4407 27.1823 47.9637 26.2684 47.9637 24.2191ZM45.6785 24.2329C45.6785 27.3346 48.0333 29.3425 50.8201 29.3425C53.593 29.3425 55.9478 27.3346 55.9478 24.2329C55.9478 21.1173 53.593 19.1095 50.8201 19.1095C48.0333 19.1095 45.6785 21.1173 45.6785 24.2329Z" fill="#6B6B6B"/>
<path d="M59.7182 27.0716V21.3804H61.0002C62.519 21.3804 63.7591 22.2666 63.7591 24.2329C63.7591 26.1992 62.519 27.0716 61.0002 27.0716H59.7182ZM61.0838 29.1348C64.0656 29.1348 66.0582 27.2654 66.0582 24.2329C66.0582 21.2004 64.0656 19.3172 61.0977 19.3172H57.5167V29.1348H61.0838Z" fill="#6B6B6B"/>
<path d="M73.7012 29.1348H76.0979L72.4193 19.3172H69.8694L66.1491 29.1348H68.4621L69.1727 27.1408H72.9906L73.7012 29.1348ZM71.1095 21.7543L72.2939 25.1468H69.8973L71.1095 21.7543Z" fill="#6B6B6B"/>
<path d="M78.5849 25.036V29.1348H80.7864V25.036L84.256 19.3172H81.8036L79.7553 22.959L77.7349 19.3172H75.1571L78.5849 25.036Z" fill="#6B6B6B"/>
<path fill-rule="evenodd" clip-rule="evenodd" d="M14.8048 0.575073C22.9812 0.575073 29.6096 7.16206 29.6096 15.2875C29.6096 23.413 22.9812 29.9999 14.8048 29.9999C6.62833 29.9999 0 23.413 0 15.2875C0 7.16206 6.62833 0.575073 14.8048 0.575073ZM14.8048 7.49857C10.4761 7.49857 6.96696 10.9858 6.96696 15.2875C6.96696 19.5892 10.4761 23.0764 14.8048 23.0764C19.1335 23.0764 22.6426 19.5892 22.6426 15.2875C22.6426 10.9858 19.1335 7.49857 14.8048 7.49857Z" fill="#6B6B6B"/>
</g>
</svg>
