<svg width="112" height="30" viewBox="0 0 112 30" fill="none" xmlns="http://www.w3.org/2000/svg">
<g opacity="0.5">
<path d="M2.57795 18.3121C1.02989 20.4487 0.255859 22.8418 0.255859 24.6793C0.255859 27.2006 1.63191 29.0381 4.16901 29.0381C5.88907 29.0381 7.82415 27.7134 9.07119 26.5169C9.41521 28.098 10.6623 29.2091 12.8123 29.2091C15.4354 29.2091 18.1875 26.9442 19.3056 24.5939C19.9076 23.3546 19.6496 22.2008 19.4776 21.8162C19.0476 20.9188 18.6606 20.9615 18.1875 21.8162C16.7685 24.5939 14.6184 27.4997 13.0703 27.4997C12.6403 27.4997 12.4683 27.1151 12.4683 26.4741C12.4683 23.611 16.0805 18.9531 17.1985 16.6027C18.3165 14.3806 17.9295 12.5003 17.1985 11.6457C16.6825 11.0474 15.9515 11.0901 15.4354 11.9448L14.6184 13.2695C14.2314 12.1585 13.2854 11.3893 11.7373 11.3893C9.54421 11.3893 6.01808 13.3977 2.57795 18.3121ZM4.72803 27.1579C4.29801 27.1579 4.12601 26.6451 4.12601 25.8759C4.12601 24.5084 4.85703 22.2435 6.14708 20.2351C8.34017 16.7309 11.3073 14.0387 12.1673 14.0387C12.5973 14.0387 12.6833 14.3379 12.6833 14.8507C12.6833 15.9617 11.9093 18.0557 10.2322 20.9615C8.12516 24.5511 6.14708 27.1579 4.72803 27.1579Z" fill="#6B6B6B"/>
<path d="M23.0565 27.1151C22.1104 27.1151 21.2074 25.6195 20.6914 23.611C21.9814 21.7735 23.1855 19.9359 24.2175 18.3121C24.3035 19.4659 24.3465 20.8333 24.3465 22.2008C24.3465 24.9785 23.9595 27.1151 23.0565 27.1151ZM17.1652 23.0127C17.1652 23.9956 17.4233 25.0212 17.8963 25.8331C19.3583 28.5253 21.9384 29.2091 24.5185 29.1236C27.7436 28.9954 30.7538 27.3715 32.3878 24.3802C33.1619 23.0555 33.0329 21.8589 32.8178 21.4316C32.5168 20.7479 31.8718 20.4487 31.4848 21.4316C30.7108 23.5255 29.5067 24.9357 27.7436 26.1323C28.2167 25.1921 28.4317 23.9956 28.4747 22.9273C28.5607 20.6197 28.0017 17.842 28.0017 14.8079C28.0017 14.2524 28.0447 13.5259 28.0877 13.0131C29.4207 10.8337 29.1627 9.89359 28.0017 9.89359C27.3566 9.89359 26.5826 10.1927 25.8946 10.791C24.9055 11.6029 24.3895 12.5858 24.2175 14.1242C23.0995 15.9617 21.5944 18.1839 20.1754 20.1923C20.0464 19.1667 19.4013 18.9531 18.5413 19.6795C17.5953 20.4915 17.1652 21.7307 17.1652 23.0127Z" fill="#6B6B6B"/>
<path d="M44.6759 2.62891C44.6759 2.03064 44.5039 1.4751 44.2459 0.962305C43.7728 0.0649025 43.0848 0.0649024 42.3968 0.91957C38.6126 6.09031 32.4204 18.1411 30.4853 23.611C30.0553 24.8503 29.9263 25.7904 29.9263 26.4741C29.9263 27.3715 30.1843 27.9698 30.6143 28.4399C31.1304 29.0809 31.8184 28.8672 32.1194 28.2689C33.4955 25.0639 34.6565 22.4572 35.8175 20.406C35.8175 26.3887 38.3976 28.8672 41.5798 28.9099C45.2349 28.9527 47.428 25.8759 48.245 24.3802C48.89 23.2691 48.976 22.2008 48.761 21.6453C48.374 20.5769 47.815 20.6624 47.299 21.688C46.0949 24.1665 43.7298 27.1579 42.2678 27.1579C40.9777 27.1579 39.9457 24.8075 39.7737 21.6025C42.3108 20.7479 44.0739 19.5513 45.4499 18.2266C46.5249 17.201 46.955 16.1327 46.955 15.1071C46.955 14.3806 46.783 13.6969 46.4389 13.0559C45.4929 11.0901 44.3319 10.4064 42.3968 11.0901C41.6658 11.3465 40.9347 11.6457 40.1607 12.2012C42.7408 7.54325 44.6759 4.29551 44.6759 2.62891ZM44.0739 13.1841C44.4609 13.7396 43.6868 15.1498 41.9668 16.56C40.5477 17.7138 37.5376 19.0385 36.2906 19.4659C37.5806 17.3292 38.7847 15.7908 40.2467 14.6797C42.2248 13.1841 43.7298 12.6713 44.0739 13.1841Z" fill="#6B6B6B"/>
<path d="M53.7922 9.59445C53.7922 10.9192 54.9533 12.2012 56.3293 12.2012C57.4044 12.2012 58.0494 11.2183 58.0494 10.0645C58.0494 8.82525 56.8883 7.28685 55.6843 7.28685C54.6953 7.28685 53.7922 8.39792 53.7922 9.59445ZM56.9743 24.5939C57.5334 23.4828 57.5764 22.4145 57.1894 21.688C56.8023 20.9188 56.2433 20.8333 55.8993 21.6025C54.5663 24.5084 52.3302 27.3715 50.6101 27.3715C50.1371 27.3715 49.9651 26.9869 49.9651 26.3032C49.9651 25.6195 50.1801 24.7221 50.5671 23.7392C51.2981 22.0299 53.2762 18.8249 54.0932 16.9873C55.2113 14.8507 54.8673 13.0131 54.0502 12.1585C53.4912 11.5175 52.9752 11.6029 52.3302 12.4576C50.7391 14.6797 47.987 19.6368 46.912 22.6281C46.568 23.7392 46.3959 24.6366 46.3959 25.4485C46.3959 27.5852 47.557 29.0809 50.1801 29.0809C52.7172 29.0809 55.6843 27.2861 56.9743 24.5939Z" fill="#6B6B6B"/>
<path d="M63.045 11.7311C62.615 10.9619 61.9699 10.9192 61.4109 11.7311C58.7878 15.7053 55.6917 21.6453 54.7887 24.2093C54.4446 25.1921 54.3156 25.9186 54.3156 26.5169C54.3156 27.4997 54.7457 28.2689 55.3477 28.7817C56.0787 29.4228 56.5517 29.1663 56.8527 28.4826C58.5298 24.5511 60.5079 20.6624 62.916 18.0984C65.4961 15.278 67.1731 14.3379 67.5171 14.3379C67.9042 14.3379 66.7001 15.9617 65.5391 17.8847C64.378 19.6795 62.959 21.9871 62.3569 23.5255C61.9269 24.5939 61.5829 25.9613 61.5829 26.6878C61.5829 27.7989 61.8839 28.3971 62.5289 29.0381C63.217 29.7219 63.819 29.5937 64.249 28.7817C66.0551 24.8075 68.1192 20.7479 71.4733 17.4147C74.0104 14.8934 74.9134 14.4661 75.2574 14.4661C75.6014 14.4661 74.5694 15.7481 73.6234 17.1583C72.6343 18.6967 71.2153 21.0043 70.5273 22.4572C70.0542 23.5255 69.8822 24.4657 69.8822 25.2349C69.8822 27.5425 71.4733 29.1236 74.3974 29.1236C77.0635 29.1236 80.1166 26.9869 81.3207 24.5084C81.8367 23.5255 81.7937 21.9017 81.3207 21.4316C80.9336 21.047 80.5036 21.0897 80.1166 21.7307C78.5256 24.3375 76.4185 27.3288 75.0854 27.3288C74.3974 27.3288 73.9674 26.6451 73.9674 25.6622C73.9674 24.1665 75.0854 22.2863 76.2895 20.4487C78.0525 17.7565 78.9556 15.7908 78.9556 14.3379C78.9556 12.9277 78.2675 11.7739 77.0205 11.7311C75.6444 11.6884 73.3654 13.1413 71.4303 14.8507C71.4303 13.0559 70.5273 11.5175 69.1512 11.5175C67.7751 11.5175 65.3671 13.1413 63.518 14.9361C63.604 14.5088 63.647 14.1242 63.647 13.7823C63.647 13.0986 63.432 12.3721 63.045 11.7311Z" fill="#6B6B6B"/>
<path d="M82.1562 18.3121C80.6081 20.4487 79.8341 22.8418 79.8341 24.6793C79.8341 27.2006 81.2101 29.0381 83.7472 29.0381C85.4673 29.0381 87.4024 27.7134 88.6494 26.5169C88.9934 28.098 90.2405 29.2091 92.3906 29.2091C95.0137 29.2091 97.7658 26.9442 98.8838 24.5939C99.4858 23.3546 99.2278 22.2008 99.0558 21.8162C98.6258 20.9188 98.2388 20.9615 97.7658 21.8162C96.3467 24.5939 94.1966 27.4997 92.6486 27.4997C92.2186 27.4997 92.0466 27.1151 92.0466 26.4741C92.0466 23.611 95.6587 18.9531 96.7767 16.6027C97.8948 14.3806 97.5078 12.5003 96.7767 11.6457C96.2607 11.0474 95.5297 11.0901 95.0137 11.9448L94.1966 13.2695C93.8096 12.1585 92.8636 11.3893 91.3155 11.3893C89.1224 11.3893 85.5963 13.3977 82.1562 18.3121ZM84.3063 27.1579C83.8762 27.1579 83.7042 26.6451 83.7042 25.8759C83.7042 24.5084 84.4353 22.2435 85.7253 20.2351C87.9184 16.7309 90.8855 14.0387 91.7455 14.0387C92.1756 14.0387 92.2616 14.3379 92.2616 14.8507C92.2616 15.9617 91.4875 18.0557 89.8105 20.9615C87.7034 24.5511 85.7253 27.1579 84.3063 27.1579Z" fill="#6B6B6B"/>
<path d="M97.3025 24.2947C97.3025 27.2433 99.2806 29.0809 101.56 29.0809C105.172 29.0809 108.053 25.4058 108.655 24.1238C109.128 23.1409 109.3 22.4999 109.085 21.6025C108.784 20.4487 107.795 20.5342 107.322 21.5598C105.817 24.7648 103.581 27.457 101.904 27.457C101.173 27.457 100.743 26.5596 100.743 25.2776C100.743 24.3375 101.001 23.2264 101.517 22.0726C103.022 18.8249 105.473 14.5943 107.107 11.8166C108.053 11.6884 109.171 11.6029 109.945 11.6884C110.977 11.8166 111.278 11.3038 110.848 10.5346C110.547 10.0218 109.816 9.33805 108.483 9.16712C108.999 7.97058 109.171 6.98771 109.171 6.21851C109.171 5.70571 108.999 4.97924 108.698 4.46644C108.225 3.65451 107.709 3.61177 107.064 4.55191C106.075 5.96211 105.172 7.37231 103.839 9.67992C102.893 9.76539 101.732 9.80812 100.743 9.76539C99.7536 9.72265 99.3236 10.15 99.9256 11.0474C100.27 11.5602 101.044 12.0303 102.377 12.2012C100.657 15.278 99.0226 18.6539 98.1625 20.7479C97.5605 22.1581 97.3025 23.3546 97.3025 24.2947Z" fill="#6B6B6B"/>
</g>
</svg>
