<svg width="31" height="31" viewBox="0 0 31 31" fill="none" xmlns="http://www.w3.org/2000/svg">
<g clip-path="url(#clip0_106_655)">
<path d="M19.4393 6.45632C20.7009 6.70233 21.8604 7.31901 22.7693 8.22743C23.6782 9.13585 24.2952 10.2947 24.5414 11.5556L19.4393 6.45632ZM19.4393 1.29248C22.0604 1.58351 24.5047 2.75665 26.3707 4.61929C28.2367 6.48193 29.4135 8.92335 29.708 11.5427L19.4393 1.29248ZM28.4164 21.8446V25.7174C28.4178 26.077 28.3441 26.4328 28.2 26.7623C28.0559 27.0917 27.8445 27.3874 27.5795 27.6305C27.3144 27.8735 27.0014 28.0586 26.6607 28.1738C26.3199 28.2889 25.9588 28.3317 25.6005 28.2994C21.6259 27.8677 17.8079 26.5103 14.4534 24.3361C11.3326 22.3541 8.68658 19.7095 6.70344 16.5904C4.5205 13.2225 3.162 9.38808 2.73802 5.39773C2.70575 5.04074 2.74819 4.68094 2.86267 4.34124C2.97714 4.00154 3.16114 3.68939 3.40293 3.42466C3.64472 3.15992 3.93902 2.94841 4.26709 2.80358C4.59515 2.65875 4.9498 2.58378 5.30844 2.58344H9.18344C9.81029 2.57727 10.418 2.79913 10.8933 3.20766C11.3686 3.61619 11.679 4.18352 11.7668 4.80389C11.9303 6.0433 12.2336 7.26023 12.6709 8.43149C12.8447 8.89355 12.8823 9.39572 12.7793 9.8785C12.6763 10.3613 12.437 10.8044 12.0897 11.1554L10.4493 12.7949C12.288 16.0269 14.9655 18.7029 18.1993 20.5407L19.8397 18.9012C20.1909 18.5541 20.6343 18.3149 21.1173 18.2119C21.6003 18.109 22.1028 18.1465 22.5651 18.3202C23.737 18.7573 24.9546 19.0604 26.1947 19.2239C26.8221 19.3124 27.3952 19.6282 27.8048 20.1114C28.2144 20.5946 28.4321 21.2114 28.4164 21.8446Z" stroke="#1A1A1A" stroke-width="2.5" stroke-linecap="round" stroke-linejoin="round"/>
</g>
<defs>
<clipPath id="clip0_106_655">
<rect width="31" height="30.983" fill="white" transform="translate(0 0.000488281)"/>
</clipPath>
</defs>
</svg>
