<svg width="104" height="141" viewBox="0 0 104 141" fill="none" xmlns="http://www.w3.org/2000/svg">
<g clip-path="url(#clip0_106_217)">
<path d="M12.1335 118.784C13.9129 113.66 16.7 109.291 19.8154 105.06C24.8886 98.1743 31.8621 94.3689 39.9297 92.331C41.4442 91.951 43.1487 92.1065 44.7323 92.2849C45.6133 92.3885 46.4311 93.0506 47.721 93.6839C45.6076 94.9677 44.0413 96.096 42.331 96.925C35.9737 100.011 30.9638 104.541 26.6967 110.166C23.138 114.852 19.5102 119.406 17.7481 125.14C17.3104 126.568 16.199 126.93 14.6903 126.999C10.1238 127.201 7.4922 124.53 5.18305 121.15C0.13286 113.747 -1.08218 105.693 0.910255 97.0401C2.88541 88.4623 7.2561 81.1625 12.957 74.6053C18.6694 68.0309 25.1247 62.2164 31.8794 56.7588C42.2101 48.4113 52.6675 40.2249 63.0328 31.9176C71.6935 24.9805 79.4041 17.1453 85.4217 7.74998C86.5216 6.03442 87.5466 4.33035 87.3393 2.0909C87.2817 1.44612 88.0879 0.346552 88.7329 0.116274C89.4642 -0.142788 90.8865 0.0414507 91.2608 0.565332C92.1246 1.78005 93.0172 3.31714 93.0287 4.72759C93.046 6.92098 92.6717 9.24105 91.8885 11.2905C89.1532 18.4406 85.1568 24.7675 79.6345 30.2193C71.348 38.3942 62.1229 45.4464 53.2146 52.8787C45.5097 59.3149 37.6666 65.5842 30.0597 72.1356C24.0363 77.3226 19.0725 83.4653 15.1337 90.3966C10.8955 97.8576 9.50191 105.843 10.8148 114.305C10.9646 115.284 11.2525 116.24 11.5174 117.195C11.6844 117.736 11.932 118.254 12.1335 118.784Z" fill="#F7EA78"/>
<path d="M78.4314 122.031C79.1225 122.031 79.9459 121.795 80.4757 122.083C81.4374 122.607 81.9844 123.43 81.708 124.76C80.0784 132.71 71.6018 140.24 63.465 140.597C56.837 140.891 52.092 137.569 48.8442 132.037C46.2068 127.546 45.2912 122.538 45.4524 117.403C45.7173 109.009 48.5563 101.45 53.5028 94.7087C55.8638 91.4906 58.9792 89.2626 63.0504 88.6581C65.8779 88.2436 67.1678 89.2166 68.976 91.41C70.715 93.517 70.8187 95.8428 71.1181 98.2608C72.0337 105.641 73.2315 112.958 76.5542 119.728C77.0091 120.655 77.5907 121.519 78.1147 122.411C78.2299 122.284 78.3335 122.158 78.4314 122.031ZM74.6078 127.178C74.6078 127.034 74.6078 126.896 74.6078 126.752C69.2927 124.967 66.9777 120.707 65.7742 115.773C64.9507 112.394 64.467 108.894 64.1791 105.422C63.9142 102.239 64.1215 99.0149 64.1215 95.8083C63.8797 95.7047 63.6378 95.601 63.3959 95.4974C62.1003 96.9366 60.6491 98.2665 59.5493 99.8439C57.7181 102.463 57.004 105.538 56.5088 108.658C55.5759 114.564 56.4109 120.235 58.9331 125.629C60.8219 129.676 63.9891 131.052 68.2273 129.705C70.4041 129.014 72.4886 128.03 74.6078 127.178Z" fill="#F7EA78"/>
<path d="M89.1883 67.1272C89.2286 74.5537 88.0711 81.7268 84.6102 88.3818C83.971 89.6138 83.1361 90.7998 82.1859 91.8072C81.2645 92.7802 79.9977 93.2925 78.6099 92.7053C77.2221 92.1181 76.7441 90.8516 76.7383 89.5102C76.7383 88.1688 76.9629 86.8102 77.2105 85.4804C78.4198 78.8541 79.8364 72.2566 80.8442 65.6016C81.541 60.9788 81.0284 56.3156 80.0898 51.7216C79.8998 50.8005 79.7097 49.8678 79.6579 48.9352C79.5888 47.6514 80.0207 46.5346 81.2991 45.9934C82.6408 45.4292 83.8444 45.861 84.6563 46.9433C85.3992 47.9335 86.0153 49.0561 86.4818 50.2075C88.7103 55.6248 89.1595 61.3472 89.1883 67.1272Z" fill="#F7EA78"/>
<path d="M51.2168 83.7704C48.8615 83.4423 46.7136 83.2868 44.6406 82.809C41.9686 82.193 39.6998 80.8171 38.2947 78.3359C37.12 76.2634 37.3503 74.0584 38.813 72.7171C40.1892 71.4563 42.1759 71.3585 44.1453 72.7804C48.0841 75.6301 52.6103 77.0348 57.1941 78.3013C58.0694 78.5431 59.0425 78.4337 59.9697 78.5143C60.3555 78.5489 60.7355 78.6467 61.1214 78.7101C61.0177 79.1303 61.0119 79.6139 60.7931 79.9651C59.6875 81.7728 57.9542 82.7342 55.9675 83.1659C54.3494 83.5171 52.6737 83.5919 51.2168 83.7704Z" fill="#F7EA78"/>
<path d="M97.9925 92.2906C95.027 92.3309 92.5854 90.0512 92.3896 87.3166C92.1938 84.6569 96.288 80.7249 98.4071 80.7479C101.258 80.7824 103.947 83.2062 103.999 86.0271C104.068 89.51 101.442 92.2446 97.9925 92.2906Z" fill="#F7EA78"/>
<path d="M64.2537 73.7186C59.8829 73.5804 54.896 68.6869 54.7175 64.4613C54.6369 62.6364 55.4719 61.2489 56.9576 60.7365C58.4894 60.2069 60.24 60.7596 61.0807 62.4176C62.745 65.7106 64.2998 69.0612 65.7221 72.4635C66.3441 73.9661 64.9447 73.6322 64.2537 73.7186Z" fill="#F7EA78"/>
<path d="M82.9915 116.787C81.074 116.787 79.7265 115.457 79.7207 113.569C79.715 111.703 81.1258 110.241 82.934 110.253C84.8055 110.264 86.4754 111.916 86.4582 113.735C86.4409 115.503 84.984 116.787 82.9915 116.787Z" fill="#F7EA78"/>
<path d="M71.1811 64.6514C72.4883 64.6917 73.4097 65.6819 73.2887 66.8333C73.162 68.048 72.4307 68.7043 71.2099 68.7101C70.0466 68.7158 69.131 67.7083 69.252 66.5512C69.3844 65.3307 70.1388 64.7377 71.1811 64.6514Z" fill="#F7EA78"/>
</g>
<defs>
<clipPath id="clip0_106_217">
<rect width="104" height="141" fill="white"/>
</clipPath>
</defs>
</svg>
