<svg width="225" height="230" viewBox="0 0 225 230" fill="none" xmlns="http://www.w3.org/2000/svg">
<path d="M62.036 228.624C63.9539 217.982 64.5104 207.177 65.3336 196.408C66.2108 184.934 64.5954 173.43 66.1484 161.996C68.4506 145.045 71.9621 124.823 86.476 113.785C101.004 102.735 119.974 99.8863 137 94.6757C148.793 91.0669 160.448 85.9223 171.505 80.4893C178.427 77.0878 182.729 72.396 187.093 66.0922C192.733 57.945 198.841 46.7755 197.713 36.4158C197.271 32.354 196.787 28.3535 196.132 24.3153" stroke="white" stroke-linecap="round"/>
<path d="M44.795 216.585C46.7169 205.968 47.2776 195.188 48.1049 184.445C48.9865 172.999 47.3757 161.522 48.9331 150.115C51.2418 133.204 54.7609 113.03 69.2781 102.012C83.81 90.9827 102.78 88.1337 119.807 82.929C131.6 79.3242 143.257 74.1874 154.314 68.7632C161.238 65.3671 165.541 60.6849 169.907 54.3945C175.55 46.2647 181.662 35.1196 180.539 24.7852C180.098 20.7333 179.616 16.7426 178.962 12.7144" stroke="white" stroke-linecap="round"/>
<path d="M29.1525 207.417C31.102 196.667 31.672 185.754 32.5124 174.878C33.4078 163.29 31.7773 151.672 33.3576 140.123C35.7001 123.003 39.27 102.578 53.9838 91.4212C68.7126 80.2532 87.9373 77.3657 105.194 72.0936C117.145 68.4422 128.959 63.2398 140.166 57.7466C147.183 54.3073 151.545 49.5664 155.971 43.1974C161.691 34.966 167.887 23.6819 166.75 13.2199C166.304 9.11793 165.816 5.07798 165.154 0.999976" stroke="white" stroke-linecap="round"/>
</svg>
