<svg width="184" height="154" viewBox="0 0 184 154" fill="none" xmlns="http://www.w3.org/2000/svg">
<path d="M10.2105 58.1141C1.11531 46.7884 2.0253 21.7322 2.0253 21.7322V0.873291H182.581V148.826C182.581 148.826 153.626 158.584 140.21 148.826C129.094 140.741 125.284 116.81 125.284 116.81C125.284 116.81 86.825 129.368 68.4697 116.81C52.8856 106.148 46.3216 73.637 46.3216 73.637C46.3216 73.637 19.8543 70.123 10.2105 58.1141Z" fill="white"/>
<path d="M2.03332 22.217C2.03332 22.217 1.46064 46.0617 10.7087 57.1569C20.1996 68.5434 44.774 73.1811 44.774 73.1811" stroke="black" stroke-width="3" stroke-linecap="round"/>
<path d="M41.9297 58.8252C41.9297 58.8252 49.0301 103.681 70.4281 116.967C93.9364 131.563 140.962 111.943 140.962 111.943" stroke="black" stroke-width="3" stroke-linecap="round"/>
<path d="M125.287 117.685C125.287 117.685 128.334 138.333 137.399 146.397C150.554 158.099 182.284 148.551 182.284 148.551" stroke="black" stroke-width="3" stroke-linecap="round"/>
</svg>
