<svg width="212" height="156" viewBox="0 0 212 156" fill="none" xmlns="http://www.w3.org/2000/svg">
<path d="M211.422 2.31858C211.365 1.473 210.633 0.833828 209.787 0.890945C208.941 0.948065 208.301 1.67984 208.358 2.52543L211.422 2.31858ZM182.555 64.711L181.768 63.3935L182.555 64.711ZM116.937 56.3545L118.357 55.7708L116.937 56.3545ZM125.195 30.4972L125.864 31.8784L125.195 30.4972ZM147.934 37.8202L146.788 38.8422L147.934 37.8202ZM121.736 104.053L122.461 105.406L121.736 104.053ZM60.532 92.8669L59.1422 93.5197L60.532 92.8669ZM66.1388 73.2504L67.0439 74.4897L66.1388 73.2504ZM55.7485 149.053L55.2918 147.588L55.7485 149.053ZM2.10001 139.618L1.86656 138.101C1.31279 138.187 0.849378 138.567 0.657451 139.093C0.465523 139.619 0.575557 140.208 0.944544 140.629L2.10001 139.618ZM20.0965 138.397C20.9346 138.268 21.5096 137.484 21.3806 136.647C21.2517 135.809 20.4677 135.235 19.6296 135.364L20.0965 138.397ZM13.3746 154.819C13.933 155.457 14.9031 155.521 15.5412 154.963C16.1794 154.404 16.244 153.435 15.6855 152.797L13.3746 154.819ZM209.89 2.422C208.358 2.52543 208.358 2.52506 208.358 2.52487C208.358 2.52503 208.358 2.525 208.358 2.52532C208.358 2.52595 208.358 2.52725 208.358 2.52921C208.358 2.53314 208.359 2.53973 208.359 2.54894C208.361 2.56735 208.362 2.59625 208.365 2.63536C208.369 2.7136 208.375 2.83269 208.382 2.9905C208.396 3.30614 208.412 3.77653 208.423 4.38456C208.445 5.60084 208.443 7.36649 208.347 9.54483C208.155 13.9049 207.588 19.9002 206.091 26.4439C203.088 39.5674 196.405 54.6602 181.768 63.3935L183.341 66.0285C199.011 56.6789 205.996 40.6272 209.084 27.1269C210.633 20.3587 211.217 14.1723 211.415 9.67866C211.514 7.43014 211.516 5.60091 211.494 4.32904C211.482 3.693 211.465 3.19598 211.45 2.85525C211.442 2.68486 211.436 2.55352 211.431 2.46337C211.428 2.41829 211.426 2.38351 211.425 2.35929C211.424 2.34718 211.423 2.33771 211.423 2.33091C211.423 2.32752 211.422 2.32479 211.422 2.32273C211.422 2.3217 211.422 2.32066 211.422 2.32015C211.422 2.31928 211.422 2.31858 209.89 2.422ZM181.768 63.3935C170.371 70.1937 156.419 73.1922 144.329 71.9775C132.214 70.7602 122.306 65.376 118.357 55.7708L115.517 56.9381C120.061 67.9916 131.287 73.7517 144.02 75.0312C156.778 76.313 171.388 73.1604 183.341 66.0285L181.768 63.3935ZM118.357 55.7708C117.189 52.9292 116.599 48.0706 117.598 43.3106C118.589 38.5857 121.088 34.1891 125.864 31.8784L124.526 29.1161C118.638 31.9651 115.712 37.3444 114.592 42.6819C113.48 47.9842 114.093 53.4743 115.517 56.9381L118.357 55.7708ZM125.864 31.8784C130.369 29.6983 134.437 30.1992 137.97 31.8445C141.563 33.5179 144.585 36.3757 146.788 38.8422L149.079 36.7983C146.774 34.216 143.42 30.9963 139.268 29.0625C135.055 27.1005 130.007 26.4643 124.526 29.1161L125.864 31.8784ZM146.788 38.8422C155.656 48.774 155.458 61.2853 149.841 73.1832C144.209 85.1132 133.206 96.1732 121.012 102.701L122.461 105.406C135.175 98.6006 146.676 87.0783 152.618 74.492C158.576 61.8735 159.023 47.9347 149.079 36.7983L146.788 38.8422ZM121.012 102.701C110.547 108.302 98.1491 110.915 87.1752 109.479C76.2368 108.048 66.8148 102.625 61.9218 92.2141L59.1422 93.5197C64.5774 105.085 75.0485 110.988 86.7755 112.522C98.4672 114.052 111.507 111.269 122.461 105.406L121.012 102.701ZM61.9218 92.2141C60.3753 88.9234 60.0295 85.7217 60.8299 82.7784C61.6315 79.8307 63.6262 76.9836 67.0439 74.4897L65.2336 72.0112C61.3709 74.8299 58.8862 78.225 57.8665 81.9744C56.8457 85.7281 57.3368 89.6784 59.1422 93.5197L61.9218 92.2141ZM67.0439 74.4897C70.2155 72.1753 73.3861 71.7373 76.5117 72.5078C79.7117 73.2966 82.955 75.3802 86.0672 78.2844L88.1634 76.0408C84.8545 72.953 81.1573 70.4916 77.2481 69.528C73.2645 68.546 69.1575 69.148 65.2336 72.0112L67.0439 74.4897ZM86.0672 78.2844C96.6036 88.1168 95.6407 103.161 88.386 117.234C81.1449 131.282 67.9431 143.645 55.2918 147.588L56.2051 150.518C69.8292 146.271 83.5986 133.222 91.1159 118.639C98.6197 104.082 100.203 87.2756 88.1634 76.0408L86.0672 78.2844ZM55.2918 147.588C45.4471 150.656 32.4212 148.425 21.6215 145.273C16.2666 143.71 11.5443 141.947 8.16038 140.574C6.46939 139.888 5.11514 139.301 4.18609 138.886C3.72163 138.678 3.36362 138.514 3.12313 138.403C3.00289 138.347 2.91205 138.304 2.85198 138.276C2.82195 138.262 2.79961 138.251 2.78515 138.244C2.77792 138.241 2.77265 138.238 2.76937 138.237C2.76773 138.236 2.76659 138.235 2.76596 138.235C2.76563 138.235 2.76553 138.235 2.76537 138.235C2.76539 138.235 2.76554 138.235 2.10001 139.618C1.43449 141.001 1.43488 141.001 1.43541 141.001C1.43575 141.002 1.4364 141.002 1.43709 141.002C1.43846 141.003 1.44033 141.004 1.4427 141.005C1.44744 141.007 1.45418 141.01 1.4629 141.015C1.48034 141.023 1.50569 141.035 1.53877 141.051C1.60494 141.082 1.70206 141.127 1.82874 141.186C2.08209 141.304 2.45375 141.474 2.9326 141.688C3.89018 142.116 5.27715 142.717 7.00453 143.418C10.4573 144.818 15.2803 146.619 20.7596 148.219C31.6283 151.391 45.4267 153.877 56.2051 150.518L55.2918 147.588ZM2.33346 141.134L20.0965 138.397L19.6296 135.364L1.86656 138.101L2.33346 141.134ZM0.944544 140.629L13.3746 154.819L15.6855 152.797L3.25547 138.607L0.944544 140.629Z" fill="#F6E96F"/>
</svg>
